<svg width="102" height="102" viewBox="0 0 102 102" fill="none" xmlns="http://www.w3.org/2000/svg">
<g clip-path="url(#clip0_209_79)">
<path d="M98.8336 64.5881L88.3519 55.9558C88.5826 54.2706 88.6956 52.6318 88.6956 50.9998C88.6956 49.3678 88.5824 47.7292 88.3519 46.0438L98.8336 37.4115C100.091 36.3759 100.415 34.5888 99.6008 33.1807L90.7312 17.8185C89.9196 16.4083 88.2079 15.7941 86.6845 16.3684L73.9456 21.1403C71.3247 19.1224 68.4575 17.4683 65.3866 16.1999L63.1492 2.7803C62.883 1.17519 61.4948 0 59.8696 0H42.1306C40.5052 0 39.1172 1.17519 38.851 2.7807L36.6136 16.2003C33.5425 17.4687 30.6755 19.1228 28.0546 21.1407L15.3155 16.3688C13.7967 15.7923 12.0826 16.4087 11.2688 17.8189L2.3992 33.1811C1.58539 34.5892 1.90912 36.3763 3.16639 37.4119L13.6481 46.0442C13.4174 47.7294 13.3044 49.3682 13.3044 51.0002C13.3044 52.6322 13.4176 54.2708 13.6481 55.9562L3.16639 64.5885C1.90912 65.624 1.58539 67.4112 2.3992 68.8193L11.2688 84.1815C12.0826 85.5917 13.7989 86.2103 15.3155 85.6316L28.0544 80.8597C30.6753 82.8776 33.5425 84.5317 36.6134 85.8001L38.8509 99.2197C39.1162 100.826 40.5089 102 42.1304 102H59.8694C61.4937 102 62.882 100.826 63.149 99.2197L65.3864 85.8001C68.4575 84.5317 71.3245 82.8776 73.9456 80.8597L86.6845 85.6316C88.2055 86.2081 89.9174 85.5917 90.7312 84.1815L99.6008 68.8193C100.415 67.4108 100.091 65.6236 98.8336 64.5881Z" fill="#167EE6"/>
<path d="M99.6008 68.8189L90.7312 84.1811C89.9174 85.5913 88.2055 86.2077 86.6845 85.6312L73.9456 80.8593C71.3247 82.8772 68.4575 84.5313 65.3866 85.7997L63.1492 99.2193C62.8822 100.826 61.4939 102 59.8696 102H51.1399V0H59.8696C61.4951 0 62.883 1.17519 63.1492 2.7807L65.3866 16.2003C68.4577 17.4687 71.3247 19.1228 73.9458 21.1407L86.6847 16.3688C88.2081 15.7945 89.9198 16.4087 90.7314 17.8189L99.601 33.1811C100.415 34.5892 100.091 36.3763 98.8338 37.4119L88.3521 46.0442C88.5828 47.7294 88.6958 49.3682 88.6958 51.0002C88.6958 52.6322 88.5826 54.2708 88.3521 55.9562L98.8338 64.5885C100.091 65.6237 100.415 67.4108 99.6008 68.8189Z" fill="#2860CC"/>
<path d="M62.22 64.3042V101.026C61.6146 101.632 60.7786 102 59.8696 102H42.1306C41.3478 102 40.6205 101.727 40.0461 101.264V64.3042H62.22Z" fill="#FFAA00"/>
<path d="M62.22 64.3042V101.026C61.6146 101.632 60.7786 102 59.8696 102H51.1375V64.3042H62.22Z" fill="#F28D00"/>
<path d="M62.22 29.3071V44.3477L51.1331 50.9999L40.0462 44.3477V29.3071C31.8987 33.4581 26.7421 41.7368 26.7417 50.9993C26.7415 64.8898 38.0574 75.3846 51.1203 75.3912C64.5754 75.3982 75.5242 64.4535 75.5242 50.9999C75.5244 41.737 70.3676 33.4581 62.22 29.3071Z" fill="#FFD500"/>
<path d="M75.5244 50.9999C75.5244 41.737 70.3675 33.4581 62.22 29.3071V44.3477L51.1331 50.9999V75.3904C64.5829 75.3902 75.5244 64.4493 75.5244 50.9999Z" fill="#FFAA00"/>
</g>
<defs>
<clipPath id="clip0_209_79">
<rect width="102" height="102" fill="white"/>
</clipPath>
</defs>
</svg>
