<svg width="33" height="33" viewBox="0 0 33 33" fill="none" xmlns="http://www.w3.org/2000/svg">
<g clip-path="url(#clip0_49027_1247)">
<path d="M33 20.3571V13.7685H28.9198L19.2616 4.84426C19.3701 4.53855 19.4297 4.20992 19.4297 3.86743C19.4297 2.25199 18.1154 0.937744 16.5 0.937744C14.8846 0.937744 13.5703 2.25199 13.5703 3.86743C13.5703 4.20988 13.6299 4.53855 13.7384 4.84426L4.08016 13.7685H0V20.3572H1.1535L5.1614 32.0624H27.8385L31.8464 20.3572H33V20.3571ZM21.8667 23.8612H17.6567V20.3891H22.2095L21.8667 23.8612ZM15.3433 29.749H11.7147L11.3618 26.1747H15.3433V29.749ZM11.1333 23.8612L10.7905 20.389H15.3433V23.8612H11.1333ZM17.1163 3.86743C17.1163 4.04607 17.0394 4.20672 16.9176 4.31936C16.8077 4.42101 16.6612 4.48371 16.5 4.48371C16.3388 4.48371 16.1924 4.42101 16.0824 4.31936C15.9606 4.20668 15.8837 4.04607 15.8837 3.86743C15.8837 3.68879 15.9606 3.52814 16.0824 3.4155C16.1923 3.31385 16.3388 3.25115 16.5 3.25115C16.6612 3.25115 16.8076 3.31385 16.9176 3.4155C17.0394 3.52818 17.1163 3.68879 17.1163 3.86743ZM15.3088 6.54302C15.673 6.70584 16.0759 6.79715 16.5 6.79715C16.9241 6.79715 17.327 6.70584 17.6912 6.54302L25.511 13.7685H7.48903L15.3088 6.54302ZM2.3134 16.0819H30.6866V18.0438H2.3134V16.0819ZM8.46586 20.3891L8.80872 23.8613H4.79861L3.60972 20.3891H8.46586ZM6.81457 29.749L5.59071 26.1747H9.03717L9.3901 29.749H6.81457ZM17.6567 26.1746H21.6382L21.2852 29.7489H17.6567V26.1746ZM26.1854 29.749H23.6099L23.9628 26.1747H27.4093L26.1854 29.749ZM28.2014 23.8612H24.1913L24.5341 20.389H29.3903L28.2014 23.8612Z" fill="#1E1E1E"/>
</g>
<defs>
<clipPath id="clip0_49027_1247">
<rect width="33" height="33" fill="white"/>
</clipPath>
</defs>
</svg>
