<?xml version="1.0" encoding="UTF-8"?>
<svg version="1.1" xmlns="http://www.w3.org/2000/svg" width="412" height="118">
<path d="M0 0 C2.9719385 1.12451727 5.33440687 2.22293791 8 4 C10.22136508 4.43749884 12.45227511 4.82744756 14.6875 5.1875 C21.2863599 6.51411018 25.82114185 8.61420456 30 14 C30 14.66 30 15.32 30 16 C30.598125 16.144375 31.19625 16.28875 31.8125 16.4375 C33.56150404 16.8872439 35.28677023 17.42892341 37 18 C37 18.66 37 19.32 37 20 C37.66 20 38.32 20 39 20 C39 20.66 39 21.32 39 22 C39.66 22 40.32 22 41 22 C44 26.38461538 44 26.38461538 44 29 C44.66 29 45.32 29 46 29 C46.94401042 30.79036458 47.88802083 32.58072917 48.83203125 34.37109375 C49.99019799 36.32267987 49.99019799 36.32267987 53 37 C52.91886808 41.37574456 52.8060422 45.75012165 52.6875 50.125 C52.66494141 51.3625 52.64238281 52.6 52.61914062 53.875 C52.5659668 55.67324219 52.5659668 55.67324219 52.51171875 57.5078125 C52.48553467 58.60754395 52.45935059 59.70727539 52.43237305 60.84033203 C51.94365463 64.41175709 50.71934337 66.85515859 49 70 C48.39658623 72.50793848 48.01153565 74.98643681 47.625 77.53515625 C46.1109486 83.50619645 41.88925265 87.40458699 37.7421875 91.71875 C35.84061319 94.2087038 35.35781247 95.92064418 35 99 C34.40832031 99.10957031 33.81664063 99.21914062 33.20703125 99.33203125 C28.50122573 100.27626303 25.08585707 101.41945869 21 104 C15.03988734 106.09707668 9.98121444 106.45864838 3.75 105.5 C0.54905565 105.07320742 -2.05693211 105.08671812 -5.25 105.25 C-10.81806075 105.33413279 -14.60094357 103.67070289 -19.4921875 101.1484375 C-22.13087391 99.76717997 -22.13087391 99.76717997 -25.875 99.6875 C-29 99 -29 99 -30.32421875 97.41796875 C-31.16704558 96.02743742 -31.97337461 94.61427177 -32.74609375 93.18359375 C-34.01228431 90.9786077 -35.40476844 89.30143641 -37.125 87.4375 C-40.87580673 83.19620316 -42.52734603 78.66819047 -44.0625 73.25 C-44.85383922 69.89168728 -44.85383922 69.89168728 -47 67 C-47.45694047 62.68468187 -47.45664236 58.35984137 -47.48046875 54.0234375 C-47.49975446 51.90200909 -47.56173078 49.78457011 -47.625 47.6640625 C-47.75795504 39.01305743 -46.64767683 33.63982318 -41 27 C-40.566875 26.113125 -40.13375 25.22625 -39.6875 24.3125 C-37.38738004 21.16048376 -34.48320324 19.54070964 -31.20703125 17.4765625 C-28.44846717 15.6310099 -26.31009988 13.37253502 -24 11 C-18.97606802 6.62016186 -13.74512077 5.96909501 -7.2421875 4.90625 C-3.70263037 3.91687981 -2.30595909 2.79927372 0 0 Z " fill="#297A3E" transform="translate(47,6)"/>
<path d="M0 0 C5.40078567 3.83312399 9.7765693 9.1227086 12.25 15.3125 C11.755 16.7975 11.755 16.7975 11.25 18.3125 C11.25 17.6525 11.25 16.9925 11.25 16.3125 C10.26 16.9725 9.27 17.6325 8.25 18.3125 C9.9 18.6425 11.55 18.9725 13.25 19.3125 C13.25 20.6325 13.25 21.9525 13.25 23.3125 C11.93 23.3125 10.61 23.3125 9.25 23.3125 C8.755 24.7975 8.755 24.7975 8.25 26.3125 C9.9 25.9825 11.55 25.6525 13.25 25.3125 C13.25 26.6325 13.25 27.9525 13.25 29.3125 C11.6 29.3125 9.95 29.3125 8.25 29.3125 C8.25 30.3025 8.25 31.2925 8.25 32.3125 C9.9 32.6425 11.55 32.9725 13.25 33.3125 C12.64285714 38.77678571 12.64285714 38.77678571 10.875 41.1875 C9.25 42.3125 9.25 42.3125 6.25 42.3125 C5.755 43.3025 5.755 43.3025 5.25 44.3125 C5.91 44.3125 6.57 44.3125 7.25 44.3125 C6.89950425 47.55458567 6.68778819 48.92777704 4.1875 51.125 C3.2284375 51.7128125 3.2284375 51.7128125 2.25 52.3125 C1.755 50.3325 1.755 50.3325 1.25 48.3125 C0.26 48.8075 0.26 48.8075 -0.75 49.3125 C-0.255 51.7875 -0.255 51.7875 0.25 54.3125 C-3.625 53.4375 -3.625 53.4375 -4.75 52.3125 C-4.75 53.9625 -4.75 55.6125 -4.75 57.3125 C-10.11000789 59.56934543 -13.9477825 60.67513859 -19.75 60.3125 C-19.75 59.3225 -19.75 58.3325 -19.75 57.3125 C-20.41 57.3125 -21.07 57.3125 -21.75 57.3125 C-21.75 57.9725 -21.75 58.6325 -21.75 59.3125 C-27.53105283 59.7942544 -32.04390041 58.9052053 -36.75 55.3125 C-37.75 52.5625 -37.75 52.5625 -37.75 50.3125 C-38.74 50.9725 -39.73 51.6325 -40.75 52.3125 C-48.22694277 44.79355193 -51.89219542 37.97259535 -52.25 27.25 C-52.0629958 21.09889742 -50.89625122 16.5707676 -47.75 11.3125 C-47.151875 10.260625 -46.55375 9.20875 -45.9375 8.125 C-34.3371946 -6.78967837 -16.10293483 -9.89912409 0 0 Z " fill="#CAD32C" transform="translate(67.75,33.6875)"/>
<path d="M0 0 C5.40078567 3.83312399 9.7765693 9.1227086 12.25 15.3125 C11.755 16.7975 11.755 16.7975 11.25 18.3125 C11.25 17.6525 11.25 16.9925 11.25 16.3125 C10.26 16.9725 9.27 17.6325 8.25 18.3125 C9.9 18.6425 11.55 18.9725 13.25 19.3125 C13.25 20.6325 13.25 21.9525 13.25 23.3125 C11.93 23.3125 10.61 23.3125 9.25 23.3125 C8.755 24.7975 8.755 24.7975 8.25 26.3125 C9.9 25.9825 11.55 25.6525 13.25 25.3125 C13.25 26.6325 13.25 27.9525 13.25 29.3125 C11.6 29.3125 9.95 29.3125 8.25 29.3125 C8.25 30.3025 8.25 31.2925 8.25 32.3125 C9.9 32.6425 11.55 32.9725 13.25 33.3125 C12.64285714 38.77678571 12.64285714 38.77678571 10.875 41.1875 C9.25 42.3125 9.25 42.3125 6.25 42.3125 C5.755 43.3025 5.755 43.3025 5.25 44.3125 C5.91 44.3125 6.57 44.3125 7.25 44.3125 C6.89950425 47.55458567 6.68778819 48.92777704 4.1875 51.125 C3.2284375 51.7128125 3.2284375 51.7128125 2.25 52.3125 C1.755 50.3325 1.755 50.3325 1.25 48.3125 C0.26 48.8075 0.26 48.8075 -0.75 49.3125 C-0.255 51.7875 -0.255 51.7875 0.25 54.3125 C-3.625 53.4375 -3.625 53.4375 -4.75 52.3125 C-4.75 53.9625 -4.75 55.6125 -4.75 57.3125 C-10.11000789 59.56934543 -13.9477825 60.67513859 -19.75 60.3125 C-19.75 59.3225 -19.75 58.3325 -19.75 57.3125 C-20.41 57.3125 -21.07 57.3125 -21.75 57.3125 C-21.75 57.9725 -21.75 58.6325 -21.75 59.3125 C-27.53105283 59.7942544 -32.04390041 58.9052053 -36.75 55.3125 C-37.75 52.5625 -37.75 52.5625 -37.75 50.3125 C-38.74 50.9725 -39.73 51.6325 -40.75 52.3125 C-48.22694277 44.79355193 -51.89219542 37.97259535 -52.25 27.25 C-52.0629958 21.09889742 -50.89625122 16.5707676 -47.75 11.3125 C-47.151875 10.260625 -46.55375 9.20875 -45.9375 8.125 C-34.3371946 -6.78967837 -16.10293483 -9.89912409 0 0 Z M-24.75 -3.6875 C-24.729375 -2.945 -24.70875 -2.2025 -24.6875 -1.4375 C-25.75 1.3125 -25.75 1.3125 -27.8203125 2.53515625 C-30.1088977 3.53596389 -32.40126015 4.46315771 -34.75 5.3125 C-34.75 5.9725 -34.75 6.6325 -34.75 7.3125 C-35.63945313 7.66441406 -35.63945313 7.66441406 -36.546875 8.0234375 C-39.26094 9.61145425 -40.33493241 11.28852884 -42 13.9375 C-42.52078125 14.75476563 -43.0415625 15.57203125 -43.578125 16.4140625 C-43.96484375 17.04054688 -44.3515625 17.66703125 -44.75 18.3125 C-46.07 17.9825 -47.39 17.6525 -48.75 17.3125 C-49.08 18.3025 -49.41 19.2925 -49.75 20.3125 C-48.1 20.6425 -46.45 20.9725 -44.75 21.3125 C-44.79640625 22.2303125 -44.8428125 23.148125 -44.890625 24.09375 C-45.18583241 34.13080188 -44.23210109 39.79656823 -37.375 47.125 C-32.95118807 51.53832896 -28.33564525 53.67071302 -22.04052734 53.83178711 C-21.36715332 53.82542236 -20.6937793 53.81905762 -20 53.8125 C-19.29697754 53.80677979 -18.59395508 53.80105957 -17.86962891 53.79516602 C-10.69946248 53.55078463 -5.29935723 51.49859678 0.08203125 46.66796875 C6.57750312 39.66676671 7.89559532 33.15818263 7.65625 23.75390625 C6.66203171 15.33173014 2.21019504 11.05598213 -4.14453125 5.953125 C-5.75 4.3125 -5.75 4.3125 -6.25 0.875 C-6.085 0.029375 -5.92 -0.81625 -5.75 -1.6875 C-7.53141747 -2.55108623 -7.53141747 -2.55108623 -9.75 -2.6875 C-12.02144074 -0.83317913 -12.02144074 -0.83317913 -13.75 1.3125 C-13.75 -0.3375 -13.75 -1.9875 -13.75 -3.6875 C-15.07 -3.6875 -16.39 -3.6875 -17.75 -3.6875 C-18.08 -2.0375 -18.41 -0.3875 -18.75 1.3125 C-19.74 0.9825 -20.73 0.6525 -21.75 0.3125 C-22.4375 -1.75 -22.4375 -1.75 -22.75 -3.6875 C-23.41 -3.6875 -24.07 -3.6875 -24.75 -3.6875 Z " fill="#D1D6D0" transform="translate(67.75,33.6875)"/>
<path d="M0 0 C2.9719385 1.12451727 5.33440687 2.22293791 8 4 C10.22136508 4.43749884 12.45227511 4.82744756 14.6875 5.1875 C21.2863599 6.51411018 25.82114185 8.61420456 30 14 C30 14.66 30 15.32 30 16 C30.598125 16.144375 31.19625 16.28875 31.8125 16.4375 C33.56150404 16.8872439 35.28677023 17.42892341 37 18 C37 18.66 37 19.32 37 20 C37.66 20 38.32 20 39 20 C39 20.66 39 21.32 39 22 C39.66 22 40.32 22 41 22 C44 26.38461538 44 26.38461538 44 29 C44.66 29 45.32 29 46 29 C46.94401042 30.79036458 47.88802083 32.58072917 48.83203125 34.37109375 C49.99019799 36.32267987 49.99019799 36.32267987 53 37 C52.91886808 41.37574456 52.8060422 45.75012165 52.6875 50.125 C52.66494141 51.3625 52.64238281 52.6 52.61914062 53.875 C52.5659668 55.67324219 52.5659668 55.67324219 52.51171875 57.5078125 C52.48553467 58.60754395 52.45935059 59.70727539 52.43237305 60.84033203 C51.94365463 64.41175709 50.71934337 66.85515859 49 70 C48.39658623 72.50793848 48.01153565 74.98643681 47.625 77.53515625 C46.1109486 83.50619645 41.88925265 87.40458699 37.7421875 91.71875 C35.84061319 94.2087038 35.35781247 95.92064418 35 99 C34.40832031 99.10957031 33.81664063 99.21914062 33.20703125 99.33203125 C28.50122573 100.27626303 25.08585707 101.41945869 21 104 C15.03988734 106.09707668 9.98121444 106.45864838 3.75 105.5 C0.54905565 105.07320742 -2.05693211 105.08671812 -5.25 105.25 C-10.81806075 105.33413279 -14.60094357 103.67070289 -19.4921875 101.1484375 C-22.13087391 99.76717997 -22.13087391 99.76717997 -25.875 99.6875 C-29 99 -29 99 -30.32421875 97.41796875 C-31.16704558 96.02743742 -31.97337461 94.61427177 -32.74609375 93.18359375 C-34.01228431 90.9786077 -35.40476844 89.30143641 -37.125 87.4375 C-40.87580673 83.19620316 -42.52734603 78.66819047 -44.0625 73.25 C-44.85383922 69.89168728 -44.85383922 69.89168728 -47 67 C-47.45694047 62.68468187 -47.45664236 58.35984137 -47.48046875 54.0234375 C-47.49975446 51.90200909 -47.56173078 49.78457011 -47.625 47.6640625 C-47.75795504 39.01305743 -46.64767683 33.63982318 -41 27 C-40.566875 26.113125 -40.13375 25.22625 -39.6875 24.3125 C-37.38738004 21.16048376 -34.48320324 19.54070964 -31.20703125 17.4765625 C-28.44846717 15.6310099 -26.31009988 13.37253502 -24 11 C-18.97606802 6.62016186 -13.74512077 5.96909501 -7.2421875 4.90625 C-3.70263037 3.91687981 -2.30595909 2.79927372 0 0 Z M-3 7 C-4.71979644 7.32506653 -6.4514928 7.58968384 -8.1875 7.8125 C-14.31156621 8.84264094 -19.74372001 10.89761502 -23.5 16.0625 C-25.19245663 18.24858982 -26.32054263 18.70496339 -28.8125 19.8125 C-35.99142297 23.20473832 -39.42365945 29.29986359 -42.921875 36.1796875 C-44 38 -44 38 -46 39 C-46.11709643 42.52054914 -46.1875469 46.04059112 -46.25 49.5625 C-46.28351562 50.55314453 -46.31703125 51.54378906 -46.3515625 52.56445312 C-46.43685482 58.98270058 -45.76898069 62.7565135 -42 68 C-41.67 68.33 -41.34 68.66 -41 69 C-40.80593522 70.64507218 -40.61992065 72.29109594 -40.4375 73.9375 C-39.42055601 79.91495705 -36.91001604 83.30076457 -32.94140625 87.7734375 C-31 90 -31 90 -29.0625 93.4375 C-26.51649628 96.60071674 -24.45085019 97.23125004 -20.609375 98.26171875 C-18 99 -18 99 -14.47265625 100.55078125 C-8.98052067 102.63230192 -3.49644002 102.51392197 2.3125 102.5 C3.37662109 102.52835937 4.44074219 102.55671875 5.53710938 102.5859375 C12.49133575 102.60290938 17.51514754 101.37254859 23.69799805 98.17382812 C26 97 26 97 29.5 96 C32.79768467 94.68092613 33.22377522 93.03130782 35 90 C36.33953782 88.44560562 37.69434428 86.90426564 39.0625 85.375 C42.72725628 80.89585344 44.00076142 77.47111971 44.453125 71.73828125 C45 69 45 69 47.01171875 65.890625 C49.95098549 61.02382922 49.62251761 55.97677194 49.5625 50.4375 C49.58634766 49.42236328 49.61019531 48.40722656 49.63476562 47.36132812 C49.66705376 40.97661175 49.66705376 40.97661175 46.6484375 35.5703125 C45.77445312 34.72210938 44.90046875 33.87390625 44 33 C42.99495795 31.49614101 42.01247572 29.97673602 41.0625 28.4375 C38.30090406 24.22766351 35.15394466 19.66901856 29.9375 18.5625 C28 18 28 18 25.875 15.1875 C20.83098479 8.73549281 11.62968644 7.49921854 4 6 C3.31679688 5.77699219 2.63359375 5.55398437 1.9296875 5.32421875 C-0.32126846 4.71953024 -0.32126846 4.71953024 -3 7 Z " fill="#3D3C5D" transform="translate(47,6)"/>
<path d="M0 0 C1.32 0 2.64 0 4 0 C4 6.6 4 13.2 4 20 C7.3 20 10.6 20 14 20 C13.97679687 18.89140625 13.95359375 17.7828125 13.9296875 16.640625 C13.91092423 15.17709008 13.89272463 13.71354786 13.875 12.25 C13.84986328 11.15558594 13.84986328 11.15558594 13.82421875 10.0390625 C13.78927761 6.1955376 13.82500316 3.25393228 16 0 C18.45862401 -0.05383848 20.9160755 -0.09359038 23.375 -0.125 C24.42300781 -0.15013672 24.42300781 -0.15013672 25.4921875 -0.17578125 C27.32897486 -0.19344267 29.16601963 -0.10303261 31 0 C33.35358251 2.35358251 33.27871904 2.92968394 33.4140625 6.1328125 C33.47207031 7.34130859 33.47207031 7.34130859 33.53125 8.57421875 C33.5621875 9.41597656 33.593125 10.25773437 33.625 11.125 C33.68300781 12.39923828 33.68300781 12.39923828 33.7421875 13.69921875 C33.83656494 15.79911684 33.91937586 17.89952891 34 20 C34.52400391 18.21142578 34.52400391 18.21142578 35.05859375 16.38671875 C35.51820045 14.82030407 35.97783745 13.25389829 36.4375 11.6875 C36.66759766 10.90181641 36.89769531 10.11613281 37.13476562 9.30664062 C37.35712891 8.54931641 37.57949219 7.79199219 37.80859375 7.01171875 C38.01282959 6.31522217 38.21706543 5.61872559 38.42749023 4.90112305 C38.92222612 3.25826234 39.45743619 1.62769144 40 0 C41.65 0 43.3 0 45 0 C53 18.85106383 53 18.85106383 53 26 C51.35 26 49.7 26 48 26 C47.34 24.68 46.68 23.36 46 22 C43.69 22 41.38 22 39 22 C38.67 23.32 38.34 24.64 38 26 C25.46 26 12.92 26 0 26 C0 17.42 0 8.84 0 0 Z M19 6 C19 10.62 19 15.24 19 20 C21.97 20 24.94 20 28 20 C28 15.38 28 10.76 28 6 C25.03 6 22.06 6 19 6 Z M42 9 C41.67 10.98 41.34 12.96 41 15 C41.99 15 42.98 15 44 15 C43.67 13.02 43.34 11.04 43 9 C42.67 9 42.34 9 42 9 Z " fill="#FFFFFF" transform="translate(127,67)"/>
<path d="M0 0 C1.65 0 3.3 0 5 0 C5.33 5.94 5.66 11.88 6 18 C7.65 12.06 9.3 6.12 11 0 C12.65 0 14.3 0 16 0 C19.00916541 7.23480194 21.57418121 14.54927087 24 22 C24.33 14.74 24.66 7.48 25 0 C29.78837486 1.19709372 31.068472 3.24110423 33.75 7.0625 C34.16121094 7.63033203 34.57242188 8.19816406 34.99609375 8.78320312 C36.00695036 10.18194657 37.00477206 11.59009375 38 13 C38.495 6.565 38.495 6.565 39 0 C40.32 0 41.64 0 43 0 C43 8.58 43 17.16 43 26 C38 25 38 25 35.76171875 22.27734375 C35.07722656 21.17519531 34.39273438 20.07304688 33.6875 18.9375 C32.99011719 17.83277344 32.29273438 16.72804688 31.57421875 15.58984375 C30.79498047 14.30787109 30.79498047 14.30787109 30 13 C29.67 17.29 29.34 21.58 29 26 C25.7 26 22.4 26 19 26 C18.34 24.68 17.68 23.36 17 22 C14.69 22 12.38 22 10 22 C9.67 23.32 9.34 24.64 9 26 C6.18743719 26.02684312 3.37512759 26.04676188 0.5625 26.0625 C-0.23994141 26.07087891 -1.04238281 26.07925781 -1.86914062 26.08789062 C-3.91295221 26.0965143 -5.95683902 26.0522815 -8 26 C-9 25 -9 25 -9.09765625 22.49609375 C-9.08605469 21.48675781 -9.07445312 20.47742188 -9.0625 19.4375 C-9.05347656 18.42558594 -9.04445312 17.41367188 -9.03515625 16.37109375 C-9.02355469 15.58863281 -9.01195312 14.80617188 -9 14 C-7.68 13.67 -6.36 13.34 -5 13 C-5 15.31 -5 17.62 -5 20 C-3.35 20 -1.7 20 0 20 C0 13.4 0 6.8 0 0 Z M13 11 C12.67 12.32 12.34 13.64 12 15 C12.99 15 13.98 15 15 15 C15 13.68 15 12.36 15 11 C14.34 11 13.68 11 13 11 Z " fill="#FFFFFF" transform="translate(197,67)"/>
<path d="M0 0 C1.34704371 0.27269421 2.67713846 0.62727191 4 1 C5.14210937 1.27457031 6.28421875 1.54914062 7.4609375 1.83203125 C8.76577833 2.15824146 10.07046185 2.48508147 11.375 2.8125 C12.34566406 3.04163086 12.34566406 3.04163086 13.3359375 3.27539062 C18.55221005 4.60575046 23.2807691 6.5332774 26.4375 11.0625 C28.3627628 13.44982588 30.38011203 13.94620473 33.171875 15.04296875 C40.15229433 18.6972481 45.94558571 28.96770695 49 36 C49.43841287 39.42662025 49.37024855 42.86057374 49.375 46.3125 C49.39949219 47.23740234 49.42398438 48.16230469 49.44921875 49.11523438 C49.47611364 55.42208565 48.37327911 58.72150329 45 64 C44.44071048 66.66375466 44.44071048 66.66375466 44.3125 69.25 C43.39301559 75.43097854 40.30934746 78.94684877 36.19140625 83.4921875 C33.92923411 85.90636515 33.92923411 85.90636515 32.48046875 88.71875 C30.73429279 91.40942747 29.79819615 91.82564786 26.75 92.625 C23.91663688 93.39864879 21.60572402 94.20298854 18.97265625 95.55859375 C13.76375598 97.83126233 8.27427432 97.47388515 2.6875 97.4375 C1.61048828 97.45748047 0.53347656 97.47746094 -0.57617188 97.49804688 C-6.98775619 97.49416342 -11.98522031 96.68663543 -17.82519531 94 C-19.99748181 93.00115789 -22.16143184 92.28656326 -24.4375 91.5625 C-28.54985358 89.75883615 -28.86077714 88.76001162 -31 85 C-32.33953782 83.44560562 -33.69434428 81.90426564 -35.0625 80.375 C-38.83725633 75.77516032 -39.8918725 72.24668553 -40.57421875 66.41796875 C-41.15157762 63.13920601 -42.71865312 61.35493871 -45 59 C-46.52680029 54.41959914 -46.26639155 49.8608526 -46.3125 45.0625 C-46.34150391 44.06025391 -46.37050781 43.05800781 -46.40039062 42.02539062 C-46.46478359 34.60038641 -46.46478359 34.60038641 -44.15234375 31.61328125 C-43.08693359 30.81470703 -43.08693359 30.81470703 -42 30 C-41.03932 28.40062615 -40.12318242 26.77377386 -39.25 25.125 C-35.83020554 19.23390368 -31.51679335 15.17226445 -25 13 C-24.319375 12.071875 -23.63875 11.14375 -22.9375 10.1875 C-18.1613076 4.20650231 -9.91080716 2.74772648 -2.71484375 1.39453125 C-0.9776745 1.15452891 -0.9776745 1.15452891 0 0 Z M-5 5 C-6.97501138 5.43593791 -8.95452077 5.8518729 -10.9375 6.25 C-16.69820405 7.63512613 -19.40990141 9.31292684 -23 14 C-23 14.66 -23 15.32 -23 16 C-24.3303125 16.12375 -24.3303125 16.12375 -25.6875 16.25 C-30.65737287 17.37525423 -33.16051651 19.77568559 -36.01953125 23.9453125 C-36.90705078 25.51925781 -36.90705078 25.51925781 -37.8125 27.125 C-38.41707031 28.17945312 -39.02164063 29.23390625 -39.64453125 30.3203125 C-41.15045708 32.7969451 -41.15045708 32.7969451 -41 35 C-41.66 35 -42.32 35 -43 35 C-43.11681812 38.54138618 -43.187455 42.0822724 -43.25 45.625 C-43.28351562 46.62402344 -43.31703125 47.62304688 -43.3515625 48.65234375 C-43.43295253 54.797291 -42.91352116 58.02594447 -39 63 C-38.3125 65.5625 -38.3125 65.5625 -38 68 C-36.79871681 74.92809015 -32.9182198 79.25796473 -28.3671875 84.38671875 C-27 86 -27 86 -25 89 C-22.45712132 90.19579307 -20.00229531 91.22193321 -17.375 92.1875 C-16.68792969 92.46013672 -16.00085938 92.73277344 -15.29296875 93.01367188 C-9.03466125 95.35613406 -3.53031953 95.75816295 3 94 C3.99 94.495 3.99 94.495 5 95 C11.64621697 95.73846855 16.13989193 93.9644796 22.16796875 91.19140625 C25 90 25 90 27.7109375 89.56640625 C30.08550364 89.21415361 30.08550364 89.21415361 31.37109375 87.3984375 C31.72300781 86.73070313 32.07492188 86.06296875 32.4375 85.375 C34.53886037 81.66593218 36.91442189 78.605151 39.765625 75.4453125 C42.42449232 72.33208178 42.26974225 69.31899517 42.5234375 65.38671875 C43 63 43 63 44.50390625 60.91015625 C46.85396689 56.33888948 46.55284454 51.81589615 46.5625 46.75 C46.59923828 45.75097656 46.63597656 44.75195312 46.67382812 43.72265625 C46.71868258 36.0973991 44.69535338 31.88553631 40 26 C39.14291679 24.71026675 38.28856484 23.41871253 37.4375 22.125 C35.07618397 19.09767176 33.49045249 17.52147929 30 16 C28.68 16 27.36 16 26 16 C25.773125 15.4225 25.54625 14.845 25.3125 14.25 C22.90450552 10.12200947 19.85138682 8.28868337 15.37109375 6.76953125 C14.06310348 6.43761396 12.75173299 6.11876668 11.4375 5.8125 C10.77814453 5.64814453 10.11878906 5.48378906 9.43945312 5.31445312 C7.62906087 4.86503917 5.81465777 4.43186827 4 4 C3.28972656 3.75636719 2.57945313 3.51273438 1.84765625 3.26171875 C-0.83142123 2.88222997 -2.54297969 3.93077507 -5 5 Z " fill="#DDDA3B" transform="translate(47,11)"/>
<path d="M0 0 C1.65 0 3.3 0 5 0 C6.32 4.29 7.64 8.58 9 13 C10.65 8.71 12.3 4.42 14 0 C15.65 0 17.3 0 19 0 C19.33 8.25 19.66 16.5 20 25 C21.98 16.75 23.96 8.5 26 0 C27.98 0 29.96 0 32 0 C34.3579659 9.99442401 36.7023954 19.99149512 39 30 C37.35 30 35.7 30 34 30 C33.34 28.02 32.68 26.04 32 24 C29.05272465 24.10169161 29.05272465 24.10169161 26 25 C24.54708727 27.46255685 24.54708727 27.46255685 24 30 C20.7 30 17.4 30 14 30 C13.67 26.7 13.34 23.4 13 20 C12.01 22.31 11.02 24.62 10 27 C9.34 27 8.68 27 8 27 C7.01 23.7 6.02 20.4 5 17 C4.67 21.29 4.34 25.58 4 30 C2.68 30 1.36 30 0 30 C0 20.1 0 10.2 0 0 Z M28 10 C27.67 12.31 27.34 14.62 27 17 C27.99 17 28.98 17 30 17 C29.67 14.69 29.34 12.38 29 10 C28.67 10 28.34 10 28 10 Z " fill="#FFFFFF" transform="translate(294,30)"/>
<path d="M0 0 C2.29109597 -0.08075665 4.58299267 -0.13907731 6.875 -0.1875 C8.78925781 -0.23970703 8.78925781 -0.23970703 10.7421875 -0.29296875 C11.81726563 -0.19628906 12.89234375 -0.09960938 14 0 C14.66 0.99 15.32 1.98 16 3 C15.34 3 14.68 3 14 3 C14.33 3.99 14.66 4.98 15 6 C15.61875 5.79375 16.2375 5.5875 16.875 5.375 C17.57625 5.25125 18.2775 5.1275 19 5 C21 7 21 7 21.125 10.625 C21.08375 11.73875 21.0425 12.8525 21 14 C23.64 14 26.28 14 29 14 C28.979375 12.906875 28.95875 11.81375 28.9375 10.6875 C29 7 29 7 30 4 C32.16874252 4.50603992 33.99967627 4.99983813 36 6 C36 6.66 36 7.32 36 8 C35.01 8.33 34.02 8.66 33 9 C33 10.65 33 12.3 33 14 C33.99 14.33 34.98 14.66 36 15 C36.33 12.69 36.66 10.38 37 8 C37.66 8 38.32 8 39 8 C39 7.34 39 6.68 39 6 C38.01 5.67 37.02 5.34 36 5 C35.3125 2.9375 35.3125 2.9375 35 1 C37.76452033 -0.38226016 40.0461363 -0.09525387 43.125 -0.0625 C44.22070312 -0.05347656 45.31640625 -0.04445312 46.4453125 -0.03515625 C47.70988281 -0.01775391 47.70988281 -0.01775391 49 0 C49.54848998 6.1430878 48.67398815 9.38457942 45.2890625 14.53125 C44.86367187 15.0159375 44.43828125 15.500625 44 16 C43.34 16 42.68 16 42 16 C41.34 17.32 40.68 18.64 40 20 C39.01 20 38.02 20 37 20 C36.67 20.66 36.34 21.32 36 22 C34.68 22 33.36 22 32 22 C31.505 19.525 31.505 19.525 31 17 C31 18.32 31 19.64 31 21 C31 21.99 31 22.98 31 24 C27.04 24 23.08 24 19 24 C19 22.68 19 21.36 19 20 C18.67 20.99 18.34 21.98 18 23 C14.08788267 21.84414715 11.1254959 20.64465038 8 18 C8.66 16.68 9.32 15.36 10 14 C8.53774984 13.90754997 8.53774984 13.90754997 6 16 C1.58124509 10.67483383 0.17225462 6.90584443 0 0 Z " fill="#7EA731" transform="translate(24,62)"/>
<path d="M0 0 C1.65 0 3.3 0 5 0 C5 38.94 5 77.88 5 118 C3.35 118 1.7 118 0 118 C0 79.06 0 40.12 0 0 Z " fill="#FFFFFF" transform="translate(108,0)"/>
<path d="M0 0 C1.65 0 3.3 0 5 0 C5.98188561 2.58232914 6.96059589 5.16578683 7.9375 7.75 C8.21529297 8.47960937 8.49308594 9.20921875 8.77929688 9.9609375 C9.04677734 10.66992188 9.31425781 11.37890625 9.58984375 12.109375 C9.83597412 12.75874023 10.08210449 13.40810547 10.33569336 14.07714844 C11.00534792 16.01547968 11.50262068 18.01048271 12 20 C12.33 13.4 12.66 6.8 13 0 C14.32 0 15.64 0 17 0 C18.78177979 2.14757564 20.26020167 4.16582085 21.75 6.5 C22.16121094 7.12003906 22.57242187 7.74007812 22.99609375 8.37890625 C24.00974629 9.91117171 25.00651646 11.45458117 26 13 C26.495 6.565 26.495 6.565 27 0 C28.32 0 29.64 0 31 0 C31 8.58 31 17.16 31 26 C26 25 26 25 23.76171875 22.27734375 C22.73498047 20.62412109 22.73498047 20.62412109 21.6875 18.9375 C20.99011719 17.83277344 20.29273438 16.72804688 19.57421875 15.58984375 C18.79498047 14.30787109 18.79498047 14.30787109 18 13 C17.67 17.29 17.34 21.58 17 26 C14.03 26 11.06 26 8 26 C7.34 24.68 6.68 23.36 6 22 C3.69 22 1.38 22 -1 22 C-1.33 23.32 -1.66 24.64 -2 26 C-3.65 26 -5.3 26 -7 26 C-6.29157218 20.93635112 -4.97357907 16.19215182 -3.5 11.3125 C-3.27441406 10.55388672 -3.04882812 9.79527344 -2.81640625 9.01367188 C-1.91586814 5.99500417 -0.99620721 2.98862163 0 0 Z M2 9 C1.67 10.98 1.34 12.96 1 15 C1.99 15 2.98 15 4 15 C3.67 13.02 3.34 11.04 3 9 C2.67 9 2.34 9 2 9 Z " fill="#FFFFFF" transform="translate(248,67)"/>
<path d="M0 0 C2.0625 1.5625 2.0625 1.5625 4 4 C3.84784191 12.36869488 -0.74775503 16.98667556 -6.2578125 22.71875 C-8.15938681 25.2087038 -8.64218753 26.92064418 -9 30 C-9.88751953 30.16435547 -9.88751953 30.16435547 -10.79296875 30.33203125 C-15.49877427 31.27626303 -18.91414293 32.41945869 -23 35 C-28.96011266 37.09707668 -34.01878556 37.45864838 -40.25 36.5 C-43.45094435 36.07320742 -46.05693211 36.08671812 -49.25 36.25 C-54.81806075 36.33413279 -58.60094357 34.67070289 -63.4921875 32.1484375 C-66.13087391 30.76717997 -66.13087391 30.76717997 -69.875 30.6875 C-73 30 -73 30 -74.32421875 28.41796875 C-75.16704558 27.02743742 -75.97337461 25.61427177 -76.74609375 24.18359375 C-78.01228431 21.9786077 -79.40476844 20.30143641 -81.125 18.4375 C-84.67554834 14.42025588 -86.83797113 10.53845231 -87.1875 5.0625 C-87.125625 4.381875 -87.06375 3.70125 -87 3 C-86.71125 3.639375 -86.4225 4.27875 -86.125 4.9375 C-85.17176549 7.15206079 -85.17176549 7.15206079 -83 8 C-82.62875 8.825 -82.2575 9.65 -81.875 10.5 C-79.67878075 14.59960927 -76.91811731 17.58133714 -73.7421875 20.94921875 C-72 23 -72 23 -71 26 C-69.17394027 26.92141978 -69.17394027 26.92141978 -66.9375 27.5 C-63.98100463 28.37291955 -61.2946141 29.31142865 -58.4609375 30.5625 C-52.97437276 32.63353205 -47.48775848 32.51390116 -41.6875 32.5 C-40.62337891 32.52835938 -39.55925781 32.55671875 -38.46289062 32.5859375 C-31.54322658 32.60282503 -26.576386 31.40914502 -20.44848633 28.17382812 C-18 27 -18 27 -15.28369141 26.48388672 C-12.77057369 26.22566858 -12.77057369 26.22566858 -11.44140625 23.7265625 C-10.72791016 22.37691406 -10.72791016 22.37691406 -10 21 C-8.66046218 19.44560562 -7.30565572 17.90426564 -5.9375 16.375 C-1.69297579 11.20368977 -0.50093667 6.58731723 0 0 Z " fill="#363657" transform="translate(91,75)"/>
<path d="M0 0 C1.65 0 3.3 0 5 0 C5 2.31 5 4.62 5 7 C5.66 7 6.32 7 7 7 C7 4.69 7 2.38 7 0 C8.65 0 10.3 0 12 0 C11.67 2.31 11.34 4.62 11 7 C11.66 5.02 12.32 3.04 13 1 C14.32 1.33 15.64 1.66 17 2 C17 3.32 17 4.64 17 6 C17.33 5.34 17.66 4.68 18 4 C19.9375 4.375 19.9375 4.375 22 5 C22.33 5.66 22.66 6.32 23 7 C23.99 7.66 24.98 8.32 26 9 C26 9.99 26 10.98 26 12 C26.66 12 27.32 12 28 12 C30.04519535 16.34604012 31.20161508 19.13603617 31 24 C25.26157749 24.20413361 20.39460953 24.27141454 15 22 C15.66 21.67 16.32 21.34 17 21 C17 20.01 17 19.02 17 18 C15.35 18.33 13.7 18.66 12 19 C7.07692308 13.70769231 7.07692308 13.70769231 6.6875 10.125 C6.790625 9.42375 6.89375 8.7225 7 8 C6.34 8 5.68 8 5 8 C4.67 10.31 4.34 12.62 4 15 C3.34 14.67 2.68 14.34 2 14 C1.3671875 11.85546875 1.3671875 11.85546875 0.875 9.1875 C0.70742188 8.31480469 0.53984375 7.44210938 0.3671875 6.54296875 C0 4 0 4 0 0 Z " fill="#75A236" transform="translate(43,37)"/>
<path d="M0 0 C1.65 0 3.3 0 5 0 C6.32 3.96 7.64 7.92 9 12 C10.39136272 9.21727456 11.56368395 6.64449832 12.625 3.75 C13.07875 2.5125 13.5325 1.275 14 0 C15.32 0 16.64 0 18 0 C18 9.9 18 19.8 18 30 C16.68 30 15.36 30 14 30 C13.67 26.7 13.34 23.4 13 20 C12.01 22.31 11.02 24.62 10 27 C9.34 27 8.68 27 8 27 C7.01 24.03 6.02 21.06 5 18 C4.67 21.96 4.34 25.92 4 30 C2.68 30 1.36 30 0 30 C0 20.1 0 10.2 0 0 Z " fill="#FFFFFF" transform="translate(193,30)"/>
<path d="M0 0 C1.32 0 2.64 0 4 0 C4.67057887 1.7902061 5.3363469 3.58221489 6 5.375 C6.556875 6.87160156 6.556875 6.87160156 7.125 8.3984375 C8 11 8 11 8 13 C8.66 13 9.32 13 10 13 C10.103125 12.154375 10.20625 11.30875 10.3125 10.4375 C11.0828854 6.58557299 12.36274514 3.55924969 14 0 C15.32 0 16.64 0 18 0 C18 9.9 18 19.8 18 30 C16.68 30 15.36 30 14 30 C13.67 26.04 13.34 22.08 13 18 C12.01 20.97 11.02 23.94 10 27 C9.01 26.67 8.02 26.34 7 26 C5.8125 22.9375 5.8125 22.9375 5 20 C4.67 23.3 4.34 26.6 4 30 C2.68 30 1.36 30 0 30 C0 20.1 0 10.2 0 0 Z " fill="#FFFFFF" transform="translate(145,30)"/>
<path d="M0 0 C1.32 0 2.64 0 4 0 C5.65 3.96 7.3 7.92 9 12 C10.65 8.04 12.3 4.08 14 0 C15.32 0 16.64 0 18 0 C18 9.9 18 19.8 18 30 C16.68 30 15.36 30 14 30 C13.67 26.04 13.34 22.08 13 18 C12.566875 19.299375 12.13375 20.59875 11.6875 21.9375 C10.94921875 24.15234375 10.94921875 24.15234375 10 26 C9.01 26.33 8.02 26.66 7 27 C6.01 23.37 5.02 19.74 4 16 C3.67 20.62 3.34 25.24 3 30 C2.01 30 1.02 30 0 30 C0 20.1 0 10.2 0 0 Z " fill="#FFFFFF" transform="translate(273,30)"/>
<path d="M0 0 C2.14576637 -0.02685938 4.29162645 -0.04633088 6.4375 -0.0625 C7.63246094 -0.07410156 8.82742187 -0.08570312 10.05859375 -0.09765625 C13 0 13 0 14 1 C14.14115161 3.67058851 14.04247107 6.32432238 14 9 C12.68 9.33 11.36 9.66 10 10 C10 8.68 10 7.36 10 6 C7.69 6 5.38 6 3 6 C3 7.65 3 9.3 3 11 C3.71027344 10.98839844 4.42054688 10.97679687 5.15234375 10.96484375 C6.07144531 10.95582031 6.99054688 10.94679688 7.9375 10.9375 C8.85402344 10.92589844 9.77054688 10.91429687 10.71484375 10.90234375 C13 11 13 11 14 12 C14.07325168 14.86267567 14.09238205 17.700719 14.0625 20.5625 C14.05798828 21.36880859 14.05347656 22.17511719 14.04882812 23.00585938 C14.03700518 25.00393756 14.01906914 27.00197783 14 29 C11.23547967 30.38226016 8.9538637 30.09525387 5.875 30.0625 C4.77929688 30.05347656 3.68359375 30.04445313 2.5546875 30.03515625 C1.71164063 30.02355469 0.86859375 30.01195313 0 30 C-2.42857143 23.71428571 -2.42857143 23.71428571 -1 20 C0.32 20 1.64 20 3 20 C3 20.99 3 21.98 3 23 C5.31 23 7.62 23 10 23 C10 21.35 10 19.7 10 18 C6.7 18 3.4 18 0 18 C-0.86852871 14.52588517 -1.13460286 11.96655183 -1.125 8.4375 C-1.12757812 7.48746094 -1.13015625 6.53742187 -1.1328125 5.55859375 C-1 3 -1 3 0 0 Z " fill="#FFFFFF" transform="translate(127,30)"/>
<path d="M0 0 C4.29 0 8.58 0 13 0 C18.22311675 6.69211834 17.75757172 13.79297301 17 22 C16.32771808 24.89808018 15.62883275 26.46626016 14 29 C11 30 11 30 0 30 C0 20.1 0 10.2 0 0 Z M4 6 C4 11.61 4 17.22 4 23 C7.465 22.505 7.465 22.505 11 22 C12.29004296 19.41991408 12.20410224 17.44258426 12.25 14.5625 C12.27578125 13.59441406 12.3015625 12.62632813 12.328125 11.62890625 C12.19542951 9.00537379 12.19542951 9.00537379 10.796875 7.15234375 C8.65429497 5.55013968 8.65429497 5.55013968 4 6 Z " fill="#FFFFFF" transform="translate(334,30)"/>
<path d="M0 0 C1.65 0 3.3 0 5 0 C5.33 2.31 5.66 4.62 6 7 C7.32 4.69 8.64 2.38 10 0 C11.98 0 13.96 0 16 0 C16 0.99 16 1.98 16 3 C15.34 3 14.68 3 14 3 C13.8453125 3.8353125 13.8453125 3.8353125 13.6875 4.6875 C13 7 13 7 11.4375 9.375 C9.73945802 12.47577231 9.75705481 14.51778564 10 18 C10.66 18 11.32 18 12 18 C12.84114171 19.43294498 13.67265687 20.87154405 14.5 22.3125 C14.9640625 23.11300781 15.428125 23.91351563 15.90625 24.73828125 C17 27 17 27 17 30 C14.125 30.125 14.125 30.125 11 30 C10.34 29.34 9.68 28.68 9 28 C9 27.01 9 26.02 9 25 C8.34 25 7.68 25 7 25 C6.67 24.01 6.34 23.02 6 22 C5.67 24.64 5.34 27.28 5 30 C3.35 30 1.7 30 0 30 C0 20.1 0 10.2 0 0 Z " fill="#FFFFFF" transform="translate(166,30)"/>
<path d="M0 0 C1.32 0 2.64 0 4 0 C4 3.63 4 7.26 4 11 C6.64 11 9.28 11 12 11 C12 7.37 12 3.74 12 0 C13.65 0 15.3 0 17 0 C17 9.9 17 19.8 17 30 C15.35 30 13.7 30 12 30 C12 26.04 12 22.08 12 18 C9.36 18 6.72 18 4 18 C4 21.96 4 25.92 4 30 C2.68 30 1.36 30 0 30 C0 20.1 0 10.2 0 0 Z " fill="#FFFFFF" transform="translate(395,30)"/>
<path d="M0 0 C1.65 0 3.3 0 5 0 C5 3.63 5 7.26 5 11 C7.64 11 10.28 11 13 11 C13 7.37 13 3.74 13 0 C14.32 0 15.64 0 17 0 C17 9.9 17 19.8 17 30 C15.68 30 14.36 30 13 30 C13 26.04 13 22.08 13 18 C10.36 18 7.72 18 5 18 C5 21.96 5 25.92 5 30 C3.35 30 1.7 30 0 30 C0 20.1 0 10.2 0 0 Z " fill="#FFFFFF" transform="translate(234,30)"/>
<path d="M0 0 C0.99 3.96 1.98 7.92 3 12 C2.01 12 1.02 12 0 12 C0.33 12.99 0.66 13.98 1 15 C0 16 0 16 -3.0625 16.0625 C-4.031875 16.041875 -5.00125 16.02125 -6 16 C-5.34 16.33 -4.68 16.66 -4 17 C-3.65657551 18.33076989 -3.32380126 19.66431979 -3 21 C-2.34 21.66 -1.68 22.32 -1 23 C-6.61 23 -12.22 23 -18 23 C-18.33 21.02 -18.66 19.04 -19 17 C-20.65 16.67 -22.3 16.34 -24 16 C-23.67 15.01 -23.34 14.02 -23 13 C-21.02 13.495 -21.02 13.495 -19 14 C-18.54560547 13.25943359 -18.54560547 13.25943359 -18.08203125 12.50390625 C-14.61749571 7.2058319 -14.61749571 7.2058319 -11.1875 6.0625 C-10.1046875 6.0315625 -10.1046875 6.0315625 -9 6 C-8.67 5.01 -8.34 4.02 -8 3 C-6.68 3.66 -5.36 4.32 -4 5 C-4.33 3.68 -4.66 2.36 -5 1 C-3 0 -3 0 0 0 Z " fill="#3C853C" transform="translate(42,38)"/>
<path d="M0 0 C1.65 0 3.3 0 5 0 C5 7.59 5 15.18 5 23 C7.31 23 9.62 23 12 23 C12 15.41 12 7.82 12 0 C13.32 0 14.64 0 16 0 C16 9.57 16 19.14 16 29 C13.39080172 30.30459914 11.41057385 30.1326594 8.5 30.125 C7.5203125 30.12757812 6.540625 30.13015625 5.53125 30.1328125 C3 30 3 30 1 29 C-0.18706377 25.7464619 -0.1151723 22.57377048 -0.09765625 19.140625 C-0.09443359 18.02558594 -0.09121094 16.91054688 -0.08789062 15.76171875 C-0.07951172 14.60285156 -0.07113281 13.44398437 -0.0625 12.25 C-0.05798828 11.07566406 -0.05347656 9.90132812 -0.04882812 8.69140625 C-0.03705094 5.79421928 -0.02060326 2.89713546 0 0 Z " fill="#FFFFFF" transform="translate(214,30)"/>
<path d="M0 0 C1.98 0 3.96 0 6 0 C6.99991091 3.95025596 7.99674696 7.90127363 8.99072266 11.85302734 C9.32939287 13.19764226 9.66890698 14.54204491 10.00927734 15.88623047 C10.49798109 17.816824 10.98341312 19.74824481 11.46875 21.6796875 C11.90864258 23.42354736 11.90864258 23.42354736 12.35742188 25.20263672 C13 28 13 28 13 30 C11.35 30 9.7 30 8 30 C7.34 28.02 6.68 26.04 6 24 C3.05272465 24.10169161 3.05272465 24.10169161 0 25 C-1.45291273 27.46255685 -1.45291273 27.46255685 -2 30 C-3.65 30 -5.3 30 -7 30 C-6.85900879 29.410979 -6.71801758 28.82195801 -6.57275391 28.21508789 C-5.92276126 25.49773532 -5.27387498 22.78011966 -4.625 20.0625 C-4.40328125 19.13630859 -4.1815625 18.21011719 -3.953125 17.25585938 C-2.58327764 11.51458733 -1.26539026 5.76521262 0 0 Z M2 11 C1.67 12.98 1.34 14.96 1 17 C1.99 17 2.98 17 4 17 C4 15.35 4 13.7 4 12 C3.34 11.67 2.68 11.34 2 11 Z " fill="#FFFFFF" transform="translate(381,30)"/>
<path d="M0 0 C1.98 0 3.96 0 6 0 C8.3579659 9.99442401 10.7023954 19.99149512 13 30 C11.35 30 9.7 30 8 30 C7.34 28.02 6.68 26.04 6 24 C3.69 24 1.38 24 -1 24 C-1.33 25.98 -1.66 27.96 -2 30 C-3.65 30 -5.3 30 -7 30 C-2.80851064 9.46808511 -2.80851064 9.46808511 0 0 Z M2 10 C1.67 12.31 1.34 14.62 1 17 C1.99 17 2.98 17 4 17 C3.67 14.69 3.34 12.38 3 10 C2.67 10 2.34 10 2 10 Z " fill="#FFFFFF" transform="translate(259,30)"/>
<path d="M0 0 C2.875 -0.1875 2.875 -0.1875 6 0 C8 3 8 3 8 6 C10.31 6 12.62 6 15 6 C14.01 6.495 14.01 6.495 13 7 C14.3089572 10.12197478 14.3089572 10.12197478 17 12 C17 12.66 17 13.32 17 14 C16.34 14 15.68 14 15 14 C15.33 15.32 15.66 16.64 16 18 C15.34 18 14.68 18 14 18 C14 18.99 14 19.98 14 21 C12.68 20.67 11.36 20.34 10 20 C10 18.02 10 16.04 10 14 C11.32 14 12.64 14 14 14 C14 13.34 14 12.68 14 12 C11.525 11.505 11.525 11.505 9 11 C7.85647084 13.28705831 7.89665561 14.59264762 7.9375 17.125 C7.958125 18.40375 7.97875 19.6825 8 21 C4.37 21 0.74 21 -3 21 C-2.34 20.67 -1.68 20.34 -1 20 C-1.33 17.69 -1.66 15.38 -2 13 C-2.99 13 -3.98 13 -5 13 C-5.99 12.67 -6.98 12.34 -8 12 C-8 11.01 -8 10.02 -8 9 C-7.38125 8.773125 -6.7625 8.54625 -6.125 8.3125 C-3.38589791 6.62070165 -2.94975528 5.00755839 -2 2 C-1.34 2 -0.68 2 0 2 C0 1.34 0 0.68 0 0 Z " fill="#C1CD2C" transform="translate(46,56)"/>
<path d="M0 0 C2.63249349 2.45699392 4.78137264 4.56568654 6 8 C5.67 8.99 5.34 9.98 5 11 C5 10.34 5 9.68 5 9 C4.01 9.66 3.02 10.32 2 11 C4.475 11.495 4.475 11.495 7 12 C7 13.32 7 14.64 7 16 C5.68 16 4.36 16 3 16 C2.67 16.99 2.34 17.98 2 19 C3.65 18.67 5.3 18.34 7 18 C7 19.32 7 20.64 7 22 C5.35 22 3.7 22 2 22 C2 22.99 2 23.98 2 25 C3.65 25.33 5.3 25.66 7 26 C6.39285714 31.46428571 6.39285714 31.46428571 4.625 33.875 C3 35 3 35 0 35 C-0.33 35.66 -0.66 36.32 -1 37 C-0.34 37 0.32 37 1 37 C0.64950425 40.24208567 0.43778819 41.61527704 -2.0625 43.8125 C-3.0215625 44.4003125 -3.0215625 44.4003125 -4 45 C-4.33 43.68 -4.66 42.36 -5 41 C-5.99 41.495 -5.99 41.495 -7 42 C-6.67 43.65 -6.34 45.3 -6 47 C-9.875 46.125 -9.875 46.125 -11 45 C-11 46.65 -11 48.3 -11 50 C-11.99 50 -12.98 50 -14 50 C-14.103125 49.360625 -14.20625 48.72125 -14.3125 48.0625 C-14.539375 47.381875 -14.76625 46.70125 -15 46 C-15.99 45.67 -16.98 45.34 -18 45 C-17.33613281 44.70867187 -16.67226563 44.41734375 -15.98828125 44.1171875 C-8.60201052 40.68823262 -3.55834649 37.18064606 -0.51171875 29.23828125 C1.51409134 20.37729512 0.62476896 12.52390637 -3.90625 4.6953125 C-4.2671875 4.13585938 -4.628125 3.57640625 -5 3 C-3.35 2.01 -1.7 1.02 0 0 Z " fill="#F7F8F0" transform="translate(74,41)"/>
<path d="M0 0 C2 1.375 2 1.375 4 3 C4 3.66 4 4.32 4 5 C4.598125 5.144375 5.19625 5.28875 5.8125 5.4375 C7.56150404 5.8872439 9.28677023 6.42892341 11 7 C11 7.66 11 8.32 11 9 C11.66 9 12.32 9 13 9 C13 9.66 13 10.32 13 11 C13.66 11 14.32 11 15 11 C18 15.38461538 18 15.38461538 18 18 C18.66 18 19.32 18 20 18 C20.94401042 19.79036458 21.88802083 21.58072917 22.83203125 23.37109375 C23.99019799 25.32267987 23.99019799 25.32267987 27 26 C26.94769931 30.31345395 26.85252008 34.62497044 26.75 38.9375 C26.72873047 40.75604492 26.72873047 40.75604492 26.70703125 42.61132812 C26.51600217 49.66030126 26.08302543 56.0282697 22 62 C21.01 62.66 20.02 63.32 19 64 C18.61896783 57.64946381 18.61896783 57.64946381 20.48046875 54.4765625 C22.66160002 49.48631358 22.51362302 44.88790596 22.5 39.5 C22.52835938 38.48035156 22.55671875 37.46070313 22.5859375 36.41015625 C22.66284721 30.00194618 22.66284721 30.00194618 19.65625 24.5703125 C18.7796875 23.72210938 17.903125 22.87390625 17 22 C15.97386801 20.475602 14.97044878 18.93543753 14 17.375 C11.10875952 12.97528622 8.39859926 9.9137521 3.375 8 C0.55696227 6.8134578 -0.45420827 5.6034387 -2 3 C-2 2.34 -2 1.68 -2 1 C-1.34 0.67 -0.68 0.34 0 0 Z " fill="#2C2C53" transform="translate(73,17)"/>
<path d="M0 0 C1.98 0 3.96 0 6 0 C6.28875 0.969375 6.5775 1.93875 6.875 2.9375 C7.64214682 6.10664203 7.64214682 6.10664203 10 7 C10.66 4.69 11.32 2.38 12 0 C13.98 0 15.96 0 18 0 C17.19074658 2.14705981 16.37750887 4.2926183 15.5625 6.4375 C15.11003906 7.63246094 14.65757812 8.82742187 14.19140625 10.05859375 C13 13 13 13 12 14 C11.76321284 16.69235776 11.57801975 19.36498156 11.4375 22.0625 C11.39431641 22.82111328 11.35113281 23.57972656 11.30664062 24.36132812 C11.20026367 26.24065438 11.09960066 28.12030244 11 30 C9.35 30 7.7 30 6 30 C5.98582031 29.05640625 5.97164063 28.1128125 5.95703125 27.140625 C5.65536605 19.02012384 4.64847388 12.8347957 1.05859375 5.390625 C0 3 0 3 0 0 Z " fill="#FFFFFF" transform="translate(359,30)"/>
<path d="M0 0 C2 3 2 3 2.375 6.9375 C2.66959658 10.34884856 2.66959658 10.34884856 5 12.875 C7.42647531 15.45313002 7.2122665 16.25318371 7.3125 19.6875 C7.68721278 26.03888165 10.89229757 29.41604221 15 34 C15.59683594 34.84304687 16.19367187 35.68609375 16.80859375 36.5546875 C21.21576291 41.47249123 29.02679449 44.34703909 35.51953125 45.4140625 C39.10062513 45.45514579 42.50920958 44.71869214 46 44 C46.99 44.495 46.99 44.495 48 45 C55.00388164 45.66703635 59.29805951 44.32568337 65.51953125 41.09375 C68 40 68 40 72 40 C72.185625 39.34 72.37125 38.68 72.5625 38 C74.32198888 34.32802321 76.69983645 31.75048968 79.44140625 28.76953125 C81.87172168 26.01030095 82.20387175 23.96128246 82.5625 20.375 C82.68818359 19.14910156 82.68818359 19.14910156 82.81640625 17.8984375 C82.87699219 17.27195312 82.93757813 16.64546875 83 16 C83.33 16 83.66 16 84 16 C84.83315996 21.31782343 85.02680726 25.3861494 82.06640625 30.0390625 C80.47608273 31.92709459 78.84308194 33.78023391 77.1640625 35.58984375 C74.95510324 37.81385977 74.95510324 37.81385977 73.96875 40.21875 C73 42 73 42 71.1171875 42.94140625 C70.37726563 43.14636719 69.63734375 43.35132813 68.875 43.5625 C65.79972931 44.45801883 62.88606843 45.43800764 59.9375 46.6875 C54.56566797 48.73544395 49.53472211 48.49011749 44 47 C43.01 47.495 43.01 47.495 42 48 C36.09234284 48.35050825 31.45951617 47.63958254 25.9375 45.5625 C25.2372168 45.30025635 24.53693359 45.0380127 23.81542969 44.76782227 C17.61864702 42.23033409 14.4153392 38.73479074 11 33 C10.236875 32.0925 9.47375 31.185 8.6875 30.25 C6.06761595 26.75682127 5.09856059 23.90347209 4.625 19.5625 C4.25603926 15.91357622 4.25603926 15.91357622 1.9375 13.1875 C-0.7442382 8.77560813 -0.3582222 5.03501207 0 0 Z " fill="#1D2C28" transform="translate(4,58)"/>
<path d="M0 0 C1.09570312 0.00902344 2.19140625 0.01804688 3.3203125 0.02734375 C4.16335937 0.03894531 5.00640625 0.05054688 5.875 0.0625 C6.42348998 6.2055878 5.54898815 9.44707942 2.1640625 14.59375 C1.52597656 15.32078125 1.52597656 15.32078125 0.875 16.0625 C0.215 16.0625 -0.445 16.0625 -1.125 16.0625 C-1.785 17.3825 -2.445 18.7025 -3.125 20.0625 C-4.445 19.4025 -5.765 18.7425 -7.125 18.0625 C-6.25 13.1875 -6.25 13.1875 -5.125 12.0625 C-5.53429986 10.00853274 -5.53429986 10.00853274 -6.125 8.0625 C-5.465 8.0625 -4.805 8.0625 -4.125 8.0625 C-4.125 7.4025 -4.125 6.7425 -4.125 6.0625 C-5.115 5.7325 -6.105 5.4025 -7.125 5.0625 C-7.8125 3 -7.8125 3 -8.125 1.0625 C-5.36047967 -0.31976016 -3.0788637 -0.03275387 0 0 Z " fill="#508D39" transform="translate(67.125,61.9375)"/>
<path d="M0 0 C0.95003906 0.15339844 1.90007813 0.30679688 2.87890625 0.46484375 C7.54961567 1.13208795 12.22798139 1.34403564 16.9375 1.5625 C17.81212891 1.60568359 18.68675781 1.64886719 19.58789062 1.69335938 C21.72511995 1.79846901 23.86254238 1.89963985 26 2 C26.12375 2.639375 26.2475 3.27875 26.375 3.9375 C26.58125 4.618125 26.7875 5.29875 27 6 C27.66 6.33 28.32 6.66 29 7 C24.126739 8.5912689 20.19209404 9.21192221 15 9 C15 8.01 15 7.02 15 6 C14.34 6 13.68 6 13 6 C13 6.66 13 7.32 13 8 C7.34605369 8.34615998 3.96993194 7.43425238 -1 5 C-0.67 3.35 -0.34 1.7 0 0 Z " fill="#EAE8CC" transform="translate(33,85)"/>
<path d="M0 0 C0.66 0 1.32 0 2 0 C2.103125 0.639375 2.20625 1.27875 2.3125 1.9375 C2.6528125 2.9584375 2.6528125 2.9584375 3 4 C3.99 4.33 4.98 4.66 6 5 C6.33 3.35 6.66 1.7 7 0 C8.32 0 9.64 0 11 0 C11 1.65 11 3.3 11 5 C11.763125 4.319375 12.52625 3.63875 13.3125 2.9375 C14.199375 2.298125 15.08625 1.65875 16 1 C16.99 1.33 17.98 1.66 19 2 C18.67 3.98 18.34 5.96 18 8 C16.35 8 14.7 8 13 8 C12.87882812 8.69867188 12.75765625 9.39734375 12.6328125 10.1171875 C12.46523438 11.02726562 12.29765625 11.93734375 12.125 12.875 C11.96257813 13.77992187 11.80015625 14.68484375 11.6328125 15.6171875 C11 18 11 18 9 20 C9.54855348 15.428721 10.41744803 11.32564205 12 7 C10.35 7 8.7 7 7 7 C7 9.31 7 11.62 7 14 C6.34 14 5.68 14 5 14 C5 11.69 5 9.38 5 7 C3.35 7 1.7 7 0 7 C-0.33 8.32 -0.66 9.64 -1 11 C-1 10.01 -1 9.02 -1 8 C-2.65 8.33 -4.3 8.66 -6 9 C-5.484375 9.78375 -4.96875 10.5675 -4.4375 11.375 C-3.963125 12.24125 -3.48875 13.1075 -3 14 C-3.33 14.66 -3.66 15.32 -4 16 C-4.45375 15.34 -4.9075 14.68 -5.375 14 C-5.91125 13.34 -6.4475 12.68 -7 12 C-9.24362573 11.7715451 -9.24362573 11.7715451 -11.125 14 C-11.74375 14.66 -12.3625 15.32 -13 16 C-13.33 15.01 -13.66 14.02 -14 13 C-12.68 12.34 -11.36 11.68 -10 11 C-10 10.34 -10 9.68 -10 9 C-9.36191406 8.76925781 -8.72382812 8.53851563 -8.06640625 8.30078125 C-5.59543393 7.32549888 -3.28868041 6.35161692 -1 5 C0.2113453 2.3912295 0.2113453 2.3912295 0 0 Z " fill="#ABBB3E" transform="translate(43,30)"/>
<path d="M0 0 C0.28875 0.639375 0.5775 1.27875 0.875 1.9375 C1.82823451 4.15206079 1.82823451 4.15206079 4 5 C4.37125 5.825 4.7425 6.65 5.125 7.5 C7.32121925 11.59960927 10.08188269 14.58133714 13.2578125 17.94921875 C15 20 15 20 16 23 C17.82605973 23.92141978 17.82605973 23.92141978 20.0625 24.5 C23.08882141 25.40551349 25.97058215 26.38626278 28.875 27.625 C33.75865691 29.51321552 38.81340426 29.72350868 44 30 C43.505 31.485 43.505 31.485 43 33 C35.39901468 33.66159447 30.28202633 32.64169306 23.5078125 29.1484375 C20.86912609 27.76717997 20.86912609 27.76717997 17.125 27.6875 C14 27 14 27 12.67578125 25.41796875 C11.83295442 24.02743742 11.02662539 22.61427177 10.25390625 21.18359375 C8.98771569 18.9786077 7.59523156 17.30143641 5.875 15.4375 C2.32445166 11.42025588 0.16202887 7.53845231 -0.1875 2.0625 C-0.125625 1.381875 -0.06375 0.70125 0 0 Z " fill="#2F2E5C" transform="translate(4,78)"/>
<path d="M0 0 C0.66 0 1.32 0 2 0 C1.5625 2.8125 1.5625 2.8125 0 6 C-2.10457447 7.06968041 -4.13459404 7.67387973 -6.41796875 8.26171875 C-9.1476466 8.9518296 -9.1476466 8.9518296 -12.03125 10.5546875 C-17.23779555 12.83338455 -22.72593536 12.47388378 -28.3125 12.4375 C-29.38951172 12.45748047 -30.46652344 12.47746094 -31.57617188 12.49804688 C-38.928511 12.49359361 -44.37919653 11.1017419 -51 8 C-52.99302124 7.3127513 -54.98967123 6.63484067 -57 6 C-57 5.67 -57 5.34 -57 5 C-52.34694705 4.5953867 -49.35793468 5.11452326 -45.0625 7 C-39.07980713 9.57701991 -34.32788073 9.7036602 -28 8 C-27.34 8.33 -26.68 8.66 -26 9 C-19.31884636 9.7423504 -14.86519772 7.9403292 -8.83203125 5.09375 C-5.97524524 3.99043954 -4.0271104 3.77863909 -1 4 C-0.67 2.68 -0.34 1.36 0 0 Z " fill="#DEDC38" transform="translate(78,96)"/>
<path d="M0 0 C1.984375 0.7890625 1.984375 0.7890625 2.96875 2.390625 C3.22140625 3.05835937 3.4740625 3.72609375 3.734375 4.4140625 C6.00639686 9.48946617 9.66030281 12.43055983 13.984375 15.7890625 C12.994375 16.1190625 12.004375 16.4490625 10.984375 16.7890625 C9.77555404 18.78922716 9.77555404 18.78922716 8.984375 20.7890625 C8.654375 19.1390625 8.324375 17.4890625 7.984375 15.7890625 C6.994375 16.4490625 6.004375 17.1090625 4.984375 17.7890625 C-4.015625 8.09120154 -4.015625 8.09120154 -4.015625 0.7890625 C-2.015625 -0.2109375 -2.015625 -0.2109375 0 0 Z " fill="#F0F1EA" transform="translate(22.015625,68.2109375)"/>
<path d="M0 0 C1.2375 0.350625 2.475 0.70125 3.75 1.0625 C4.8225 1.371875 5.895 1.68125 7 2 C7 2.33 7 2.66 7 3 C3.98400776 3.07013935 1.31959301 3.07609357 -1.625 2.375 C-3.97716027 1.7652471 -3.97716027 1.7652471 -5.80859375 2.921875 C-8.37684074 4.18539758 -10.60725477 4.49030647 -13.4375 4.875 C-17.99985041 5.65260433 -20.74240622 6.53880661 -24 10 C-24.45375 10.680625 -24.9075 11.36125 -25.375 12.0625 C-27 14 -27 14 -30.375 15.375 C-36.80005745 18.25519817 -39.35360484 23.23214157 -42.203125 29.36328125 C-43 31 -43 31 -44 32 C-44.23287008 33.68183948 -44.41264166 35.3712416 -44.5625 37.0625 C-44.64628906 37.98160156 -44.73007812 38.90070312 -44.81640625 39.84765625 C-44.87699219 40.55792969 -44.93757813 41.26820312 -45 42 C-45.33 42 -45.66 42 -46 42 C-46.33 38.37 -46.66 34.74 -47 31 C-46.34 31 -45.68 31 -45 31 C-44.72542969 30.27941406 -44.45085938 29.55882813 -44.16796875 28.81640625 C-41.01476996 21.21287338 -37.79695002 15.23646982 -30 12 C-29.01 12 -28.02 12 -27 12 C-26.690625 11.1646875 -26.690625 11.1646875 -26.375 10.3125 C-23.6473479 5.72508511 -20.83809595 3.54271849 -15.78515625 2.05078125 C-13.4733293 1.52710774 -11.15410927 1.03482511 -8.828125 0.578125 C-2.44464286 -0.72678571 -2.44464286 -0.72678571 0 0 Z " fill="#1F2A18" transform="translate(51,15)"/>
<path d="M0 0 C-0.46801299 4.99213851 -2.91715737 9.12963993 -6 13 C-6.66 13 -7.32 13 -8 13 C-7.67 13.99 -7.34 14.98 -7 16 C-6.96448092 17.40066459 -6.98456306 18.80322798 -7.04296875 20.203125 C-7.06423828 21.01910156 -7.08550781 21.83507812 -7.10742188 22.67578125 C-7.16033439 24.37672508 -7.22522276 26.07734328 -7.30273438 27.77734375 C-7.42951415 33.7594709 -6.42349729 37.0701639 -3 42 C-2.67 42.33 -2.34 42.66 -2 43 C-1.92794489 44.68608966 -1.91613932 46.37500659 -1.9375 48.0625 C-1.94652344 48.98160156 -1.95554687 49.90070313 -1.96484375 50.84765625 C-1.97644531 51.55792969 -1.98804688 52.26820312 -2 53 C-4 50 -4 50 -4 46 C-4.66 46 -5.32 46 -6 46 C-10.18852333 40.55774714 -9.59412842 34.46697283 -9.61083984 27.92749023 C-9.62485612 25.83398975 -9.69213201 23.74658749 -9.76171875 21.65429688 C-9.89220548 13.52187509 -8.82337447 8.10745882 -3.70458984 1.6315918 C-2 0 -2 0 0 0 Z " fill="#18174F" transform="translate(9,32)"/>
<path d="M0 0 C2.44226996 2.86335098 3.32557783 4.62231555 3.4375 8.375 C3.79342037 12.93522968 5.43917934 15.19756932 8 19 C8.3936792 20.65345262 8.72260194 22.32311622 9 24 C10.20959763 30.97604151 14.14204138 35.32675031 18.73046875 40.484375 C20 42 20 42 21 44 C23.01669827 45.13350534 23.01669827 45.13350534 25 46 C22.03 46.495 22.03 46.495 19 47 C18.505 46.21625 18.01 45.4325 17.5 44.625 C16.12500155 42.51304195 14.69578482 40.65550336 13.0234375 38.76171875 C8.28078289 33.3550925 6.2621082 29.56201466 5.42578125 22.41796875 C4.84842238 19.13920601 3.28134688 17.35493871 1 15 C-0.09506492 11.71480525 -0.09960608 9.26336585 -0.0625 5.8125 C-0.05347656 4.72582031 -0.04445312 3.63914063 -0.03515625 2.51953125 C-0.02355469 1.68808594 -0.01195313 0.85664062 0 0 Z " fill="#CECC3C" transform="translate(1,55)"/>
<path d="M0 0 C2.29109597 -0.08075665 4.58299267 -0.13907731 6.875 -0.1875 C8.78925781 -0.23970703 8.78925781 -0.23970703 10.7421875 -0.29296875 C11.81726563 -0.19628906 12.89234375 -0.09960938 14 0 C14.66 0.99 15.32 1.98 16 3 C15.34 3 14.68 3 14 3 C14 4.65 14 6.3 14 8 C14.9590625 8.1546875 14.9590625 8.1546875 15.9375 8.3125 C16.618125 8.539375 17.29875 8.76625 18 9 C18.33 9.99 18.66 10.98 19 12 C18.34 12 17.68 12 17 12 C17.33 12.99 17.66 13.98 18 15 C16.68 15 15.36 15 14 15 C13.67 12.69 13.34 10.38 13 8 C12.34 8 11.68 8 11 8 C11.33 6.68 11.66 5.36 12 4 C10.3603125 4.7425 10.3603125 4.7425 8.6875 5.5 C5 7 5 7 2 7 C1.67 7.66 1.34 8.32 1 9 C0.67 6.03 0.34 3.06 0 0 Z " fill="#8FAE30" transform="translate(24,62)"/>
<path d="M0 0 C1.32 0 2.64 0 4 0 C4 9.9 4 19.8 4 30 C2.68 30 1.36 30 0 30 C0 20.1 0 10.2 0 0 Z " fill="#FFFFFF" transform="translate(354,30)"/>
<path d="M0 0 C-2.36228775 2.74056259 -4.47083493 3.67950281 -7.875 4.8125 C-12.73500497 6.64553655 -14.76349154 8.91177878 -18 13 C-19.97265971 14.14057074 -21.98471726 15.05564014 -24.0625 15.98828125 C-26.98328321 17.51344829 -28.82294391 19.5508119 -31 22 C-31 21.34 -31 20.68 -31 20 C-31.66 19.67 -32.32 19.34 -33 19 C-30.06916282 15.78553341 -27.16316103 13.36056788 -23.5 11 C-19.87618801 8.66438695 -16.97067469 6.14542026 -14 3 C-11.39395012 1.26263341 -9.92766764 0.54996173 -7 -0.1875 C-6.319375 -0.36667969 -5.63875 -0.54585937 -4.9375 -0.73046875 C-3 -1 -3 -1 0 0 Z " fill="#34325B" transform="translate(40,12)"/>
<path d="M0 0 C0.33 0.66 0.66 1.32 1 2 C0.01 3.485 0.01 3.485 -1 5 C-1 6.32 -1 7.64 -1 9 C-0.28972656 9.19335938 0.42054687 9.38671875 1.15234375 9.5859375 C2.07144531 9.84632812 2.99054687 10.10671875 3.9375 10.375 C4.85402344 10.63023438 5.77054688 10.88546875 6.71484375 11.1484375 C9 12 9 12 10 14 C10.99 14.66 11.98 15.32 13 16 C7.39 16 1.78 16 -4 16 C-4.33 14.02 -4.66 12.04 -5 10 C-6.65 9.67 -8.3 9.34 -10 9 C-9.67 8.01 -9.34 7.02 -9 6 C-7.02 6.495 -7.02 6.495 -5 7 C-3.35 4.69 -1.7 2.38 0 0 Z " fill="#A5B23F" transform="translate(28,45)"/>
<path d="M0 0 C5.72280376 0.23358383 8.46382667 1.72478561 12.71484375 5.52734375 C14 7 14 7 14 9 C15.3303125 9.0928125 15.3303125 9.0928125 16.6875 9.1875 C23.22042238 10.78991492 26.12976598 16.45101343 29.5703125 21.81640625 C30.93303666 24.00432939 30.93303666 24.00432939 32.56445312 25.80419922 C34.32914639 28.50345964 34.38669697 30.11208008 34.3984375 33.31640625 C34.40423828 34.83331055 34.40423828 34.83331055 34.41015625 36.38085938 C34.39855469 37.43080078 34.38695312 38.48074219 34.375 39.5625 C34.38660156 40.61630859 34.39820313 41.67011719 34.41015625 42.75585938 C34.40628906 43.76583984 34.40242188 44.77582031 34.3984375 45.81640625 C34.39505371 46.73881104 34.39166992 47.66121582 34.38818359 48.61157227 C33.9362532 51.39222324 33.16750782 52.27194883 31 54 C31.24363281 52.92298828 31.24363281 52.92298828 31.4921875 51.82421875 C32.32122953 47.21346962 32.12567104 42.66867924 32 38 C31.99484375 37.13503906 31.9896875 36.27007812 31.984375 35.37890625 C31.68342376 28.48927249 29.23439072 24.3300023 25 19 C24.49855469 18.32453125 23.99710938 17.6490625 23.48046875 16.953125 C20.28089213 12.86712215 18.02948893 11.53071402 13 10 C12.401875 9.21625 11.80375 8.4325 11.1875 7.625 C8.11437838 3.93725405 4.41110515 2.68715346 0 1 C0 0.67 0 0.34 0 0 Z " fill="#1F2A23" transform="translate(59,18)"/>
<path d="M0 0 C-0.33 1.32 -0.66 2.64 -1 4 C-0.34 4 0.32 4 1 4 C1.02698189 5.62490954 1.04638757 7.24994633 1.0625 8.875 C1.07410156 9.77992187 1.08570313 10.68484375 1.09765625 11.6171875 C1 14 1 14 0 16 C-1.32 15.34 -2.64 14.68 -4 14 C-3.34 12.68 -2.68 11.36 -2 10 C-3.46225016 9.90754997 -3.46225016 9.90754997 -6 12 C-10 7.5 -10 7.5 -10 3 C-8.70990357 2.49596232 -7.41786211 1.99690074 -6.125 1.5 C-5.04605469 1.08234375 -5.04605469 1.08234375 -3.9453125 0.65625 C-2 0 -2 0 0 0 Z " fill="#3F8638" transform="translate(36,66)"/>
<path d="M0 0 C2.30039124 3.45058686 2.4738275 5.94095502 3 10 C3.33 10.33 3.66 10.66 4 11 C4.33 10.01 4.66 9.02 5 8 C6.20628008 10.33214148 7.1654738 12.49642139 8 15 C6.35 15 4.7 15 3 15 C3 15.66 3 16.32 3 17 C2.34 17 1.68 17 1 17 C0.34 18.98 -0.32 20.96 -1 23 C-2.32 22.67 -3.64 22.34 -5 22 C-4.01 21.34 -3.02 20.68 -2 20 C-2.99 19.34 -3.98 18.68 -5 18 C-5 16.68 -5 15.36 -5 14 C-5.99 13.67 -6.98 13.34 -8 13 C-5.53721199 11.768606 -3.7204945 11.92840804 -1 12 C-1.33 10.35 -1.66 8.7 -2 7 C-1.01 7.33 -0.02 7.66 1 8 C0.67 5.36 0.34 2.72 0 0 Z " fill="#AFC43F" transform="translate(43,41)"/>
<path d="M0 0 C1.65 0 3.3 0 5 0 C5 2.31 5 4.62 5 7 C5.66 7 6.32 7 7 7 C7 4.69 7 2.38 7 0 C8.65 0 10.3 0 12 0 C11.7834375 0.88751953 11.7834375 0.88751953 11.5625 1.79296875 C10.59177306 5.92529941 9.72406298 9.7229762 10 14 C9.01 14.495 9.01 14.495 8 15 C7.67 12.69 7.34 10.38 7 8 C6.34 8 5.68 8 5 8 C4.67 10.31 4.34 12.62 4 15 C3.34 14.67 2.68 14.34 2 14 C1.3671875 11.85546875 1.3671875 11.85546875 0.875 9.1875 C0.70742188 8.31480469 0.53984375 7.44210938 0.3671875 6.54296875 C0 4 0 4 0 0 Z " fill="#297A3C" transform="translate(43,37)"/>
<path d="M0 0 C0 0.99 0 1.98 0 3 C-0.66 3 -1.32 3 -2 3 C-2 3.66 -2 4.32 -2 5 C-2.99 5.495 -2.99 5.495 -4 6 C-3.34 6.33 -2.68 6.66 -2 7 C-2 10.63 -2 14.26 -2 18 C-4.31 18 -6.62 18 -9 18 C-8.34 17.67 -7.68 17.34 -7 17 C-7.33 14.69 -7.66 12.38 -8 10 C-8.99 10 -9.98 10 -11 10 C-11.66 9.67 -12.32 9.34 -13 9 C-7.375 5.125 -7.375 5.125 -4 4 C-4 3.34 -4 2.68 -4 2 C-4.99 2.33 -5.98 2.66 -7 3 C-7 2.34 -7 1.68 -7 1 C-4.53721199 -0.231394 -2.7204945 -0.07159196 0 0 Z " fill="#9FB735" transform="translate(52,59)"/>
<path d="M0 0 C0.66 0 1.32 0 2 0 C2.08760181 4.18736668 2.14059435 8.37449531 2.1875 12.5625 C2.21263672 13.74392578 2.23777344 14.92535156 2.26367188 16.14257812 C2.31712678 22.5037117 2.3237826 27.47585783 -1 33 C-1.99 33.66 -2.98 34.32 -4 35 C-4.38099053 28.65015786 -4.38099053 28.65015786 -2.49609375 25.43359375 C-0.40286213 20.6295452 -0.71304274 16.35956978 -0.875 11.1875 C-0.91814656 9.2852445 -0.95742776 7.38289598 -0.9921875 5.48046875 C-1.01651855 4.64410889 -1.04084961 3.80774902 -1.06591797 2.94604492 C-1 1 -1 1 0 0 Z " fill="#1B1B4C" transform="translate(96,46)"/>
<path d="M0 0 C0.99 0.33 1.98 0.66 3 1 C2.67 1.66 2.34 2.32 2 3 C2.66 3 3.32 3 4 3 C3.64950425 6.24208567 3.43778819 7.61527704 0.9375 9.8125 C0.298125 10.204375 -0.34125 10.59625 -1 11 C-1.33 9.68 -1.66 8.36 -2 7 C-2.99 7.495 -2.99 7.495 -4 8 C-3.67 9.65 -3.34 11.3 -3 13 C-6.875 12.125 -6.875 12.125 -8 11 C-8 12.65 -8 14.3 -8 16 C-8.99 16 -9.98 16 -11 16 C-11.103125 15.360625 -11.20625 14.72125 -11.3125 14.0625 C-11.539375 13.381875 -11.76625 12.70125 -12 12 C-12.99 11.67 -13.98 11.34 -15 11 C-14.33613281 10.70867187 -13.67226563 10.41734375 -12.98828125 10.1171875 C-7.27089599 7.46298529 -3.61767738 5.18533757 0 0 Z " fill="#F1F2EB" transform="translate(71,75)"/>
<path d="M0 0 C0.33 0 0.66 0 1 0 C1.25011345 2.22691371 1.47428352 4.45675122 1.6875 6.6875 C1.81511719 7.92886719 1.94273438 9.17023438 2.07421875 10.44921875 C1.99170712 14.39674866 1.12490436 15.77802722 -1 19 C-1.45131833 21.51732093 -1.45131833 21.51732093 -1.625 24.125 C-2.72430021 31.33915766 -7.13572494 35.82545225 -12 41 C-12.66 40.67 -13.32 40.34 -14 40 C-12.6512925 37.04196519 -11.10431451 34.79203633 -8.9375 32.375 C-5.31312415 28.31640797 -4.8220415 25.74164332 -4.4765625 20.38671875 C-4 18 -4 18 -2.50390625 15.6328125 C-0.6443565 12.37739293 -0.50061985 9.91227294 -0.3125 6.1875 C-0.24675781 5.02605469 -0.18101563 3.86460938 -0.11328125 2.66796875 C-0.07589844 1.78753906 -0.03851563 0.90710937 0 0 Z " fill="#E5E140" transform="translate(93,56)"/>
<path d="M0 0 C2 3 2 3 2.375 6.9375 C2.66959658 10.34884856 2.66959658 10.34884856 5 12.875 C7.42647531 15.45313002 7.2122665 16.25318371 7.3125 19.6875 C7.68720006 26.03866607 10.88494274 29.4136146 15 34 C15.721875 34.969375 16.44375 35.93875 17.1875 36.9375 C19.01658484 39.01887241 20.44079147 39.99459665 23 41 C23 41.33 23 41.66 23 42 C20.72265625 42.26171875 20.72265625 42.26171875 18 42 C16.12109375 40.20703125 16.12109375 40.20703125 14.4375 37.8125 C13.84453125 36.98878906 13.2515625 36.16507813 12.640625 35.31640625 C12.09921875 34.55199219 11.5578125 33.78757813 11 33 C10.236875 32.0925 9.47375 31.185 8.6875 30.25 C6.06761595 26.75682127 5.09856059 23.90347209 4.625 19.5625 C4.25603926 15.91357622 4.25603926 15.91357622 1.9375 13.1875 C-0.7442382 8.77560813 -0.3582222 5.03501207 0 0 Z " fill="#182921" transform="translate(4,58)"/>
<path d="M0 0 C0.33 0.99 0.66 1.98 1 3 C2.98 3 4.96 3 7 3 C7 6.63 7 10.26 7 14 C5.35 14.33 3.7 14.66 2 15 C1.67 15.66 1.34 16.32 1 17 C-0.18681726 13.43954823 -0.09689832 10.56191663 -0.0625 6.8125 C-0.05347656 5.54019531 -0.04445313 4.26789062 -0.03515625 2.95703125 C-0.02355469 1.98121094 -0.01195312 1.00539062 0 0 Z " fill="#D2D8AA" transform="translate(16,54)"/>
<path d="M0 0 C0.28875 0.639375 0.5775 1.27875 0.875 1.9375 C1.82823451 4.15206079 1.82823451 4.15206079 4 5 C4.37125 5.825 4.7425 6.65 5.125 7.5 C7.32121925 11.59960927 10.08188269 14.58133714 13.2578125 17.94921875 C15 20 15 20 16 23 C17.65 23.33 19.3 23.66 21 24 C21 24.33 21 24.66 21 25 C18.69 25.33 16.38 25.66 14 26 C13.64808594 25.52691406 13.29617187 25.05382812 12.93359375 24.56640625 C12.19302734 23.57447266 12.19302734 23.57447266 11.4375 22.5625 C10.89609375 21.8303125 10.3546875 21.098125 9.796875 20.34375 C8.60312349 18.78668282 7.36271056 17.26426747 6.078125 15.78125 C1.54081216 10.45646965 0.11151231 7.02527522 0 0 Z " fill="#3E3D63" transform="translate(4,78)"/>
<path d="M0 0 C0.66 0.33 1.32 0.66 2 1 C2.625 4.0625 2.625 4.0625 3 7 C-1.455 8.485 -1.455 8.485 -6 10 C-7.32 8.68 -8.64 7.36 -10 6 C-8.89932004 5.18278283 -7.79430269 4.37140549 -6.6875 3.5625 C-6.07261719 3.11003906 -5.45773438 2.65757813 -4.82421875 2.19140625 C-3 1 -3 1 0 0 Z " fill="#B3B6B1" transform="translate(37,30)"/>
<path d="M0 0 C2.0625 1.5625 2.0625 1.5625 4 4 C3.88197467 10.49139314 1.70176335 14.21908486 -2.6875 18.8125 C-3.450625 19.534375 -4.21375 20.25625 -5 21 C-5 20.01 -5 19.02 -5 18 C-5.66 17.67 -6.32 17.34 -7 17 C-6.21625 16.236875 -5.4325 15.47375 -4.625 14.6875 C-1.00469528 10.43133439 -0.6425777 5.38998013 0 0 Z " fill="#36355F" transform="translate(91,75)"/>
<path d="M0 0 C3.3 0 6.6 0 10 0 C10 2.64 10 5.28 10 8 C8.35 8 6.7 8 5 8 C5 6.68 5 5.36 5 4 C4.67 4.99 4.34 5.98 4 7 C2.35 6.67 0.7 6.34 -1 6 C-0.67 4.02 -0.34 2.04 0 0 Z " fill="#297B3C" transform="translate(38,78)"/>
<path d="M0 0 C3.86539743 0.11713326 5.85313759 1.49327703 8.5625 4.0625 C15.329373 11.39081661 16.4428953 17.0335792 16.3359375 27.0234375 C16 30 16 30 14 32 C14.02320312 31.07058594 14.04640625 30.14117187 14.0703125 29.18359375 C14.23503625 19.90052792 14.23503625 19.90052792 12 11 C10.68 11.33 9.36 11.66 8 12 C8.33 10.68 8.66 9.36 9 8 C7.68 7.34 6.36 6.68 5 6 C5 5.34 5 4.68 5 4 C4.01 3.67 3.02 3.34 2 3 C1.67 3.99 1.34 4.98 1 6 C0 4 0 4 0 0 Z " fill="#D6DD30" transform="translate(59,38)"/>
<path d="M0 0 C3.53600465 1.91135386 5.78972846 3.62642766 8 7 C6.8125 8.5625 6.8125 8.5625 5 10 C1.65807308 9.75546876 0.39456443 9.39456443 -2 7 C-2 6.01 -2 5.02 -2 4 C-2.66 3.67 -3.32 3.34 -4 3 C-2.68 2.01 -1.36 1.02 0 0 Z " fill="#CED2CB" transform="translate(67,34)"/>
<path d="M0 0 C2.63249349 2.45699392 4.78137264 4.56568654 6 8 C5.67 8.99 5.34 9.98 5 11 C5 10.34 5 9.68 5 9 C2.525 10.485 2.525 10.485 0 12 C-1.65 9.03 -3.3 6.06 -5 3 C-3.35 2.01 -1.7 1.02 0 0 Z " fill="#CDCECA" transform="translate(74,41)"/>
<path d="M0 0 C6.6 0 13.2 0 20 0 C19.34 1.32 18.68 2.64 18 4 C12.14758839 5.95080387 6.70485399 5.16784451 1 3 C0.67 2.01 0.34 1.02 0 0 Z " fill="#3B3A57" transform="translate(46,107)"/>
<path d="M0 0 C2.97 0 5.94 0 9 0 C9.66 1.65 10.32 3.3 11 5 C9.35 5.33 7.7 5.66 6 6 C5.67 4.35 5.34 2.7 5 1 C5 2.32 5 3.64 5 5 C5 5.99 5 6.98 5 8 C3.35 8 1.7 8 0 8 C0 5.36 0 2.72 0 0 Z " fill="#25793D" transform="translate(50,78)"/>
<path d="M0 0 C6.258654 -0.5326514 10.45108785 1.18150494 16 4 C14.125 8.75 14.125 8.75 13 11 C12.01 10.34 11.02 9.68 10 9 C10.33 7.02 10.66 5.04 11 3 C9.8553125 3.4640625 9.8553125 3.4640625 8.6875 3.9375 C6.81210323 4.67893593 4.91315348 5.36228217 3 6 C3 4.35 3 2.7 3 1 C2.01 0.67 1.02 0.34 0 0 Z " fill="#E6E9E5" transform="translate(51,29)"/>
<path d="M0 0 C0.33 2.64 0.66 5.28 1 8 C-0.98 8.66 -2.96 9.32 -5 10 C-6.32 8.68 -7.64 7.36 -9 6 C-8.67 5.01 -8.34 4.02 -8 3 C-6.68 3.66 -5.36 4.32 -4 5 C-4.33 3.68 -4.66 2.36 -5 1 C-3 0 -3 0 0 0 Z " fill="#26793B" transform="translate(42,38)"/>
<path d="M0 0 C0.5775 0.78375 1.155 1.5675 1.75 2.375 C3.96968305 5.30822236 3.96968305 5.30822236 8 7 C7.67 15.91 7.34 24.82 7 34 C6.67 34 6.34 34 6 34 C6 26.08 6 18.16 6 10 C4.68 9.34 3.36 8.68 2 8 C0 6 0 6 -0.125 2.875 C-0.08375 1.92625 -0.0425 0.9775 0 0 Z " fill="#37385C" transform="translate(92,36)"/>
<path d="M0 0 C2.31 0 4.62 0 7 0 C7 1.32 7 2.64 7 4 C5.68 4 4.36 4 3 4 C2.67 4.99 2.34 5.98 2 7 C3.65 6.67 5.3 6.34 7 6 C7 7.32 7 8.64 7 10 C5.35 10 3.7 10 2 10 C2 10.99 2 11.98 2 13 C2.99 13.33 3.98 13.66 5 14 C3.68 14 2.36 14 1 14 C0.67 9.38 0.34 4.76 0 0 Z " fill="#E8E8E1" transform="translate(74,53)"/>
<path d="M0 0 C0 1.65 0 3.3 0 5 C-1.62490954 5.02698189 -3.24994633 5.04638757 -4.875 5.0625 C-6.23238281 5.07990234 -6.23238281 5.07990234 -7.6171875 5.09765625 C-10 5 -10 5 -12 4 C-12 3.34 -12 2.68 -12 2 C-10.75579353 1.4654744 -9.50429064 0.94791389 -8.25 0.4375 C-7.55390625 0.14746094 -6.8578125 -0.14257812 -6.140625 -0.44140625 C-3.69987216 -1.07831803 -2.3596345 -0.80248831 0 0 Z " fill="#2C7C3B" transform="translate(74,56)"/>
<path d="M0 0 C6.875 0.875 6.875 0.875 8 2 C8.04063832 3.66617115 8.042721 5.33388095 8 7 C7.01 7.495 7.01 7.495 6 8 C3.64018187 7.06421005 1.30368736 6.06652192 -1 5 C-0.67 3.35 -0.34 1.7 0 0 Z " fill="#BCBEBB" transform="translate(33,85)"/>
<path d="M0 0 C1.62490954 -0.02698189 3.24994633 -0.04638757 4.875 -0.0625 C5.77992187 -0.07410156 6.68484375 -0.08570313 7.6171875 -0.09765625 C10 0 10 0 12 1 C12 1.66 12 2.32 12 3 C10.56445975 3.50559908 9.1264798 4.0042749 7.6875 4.5 C6.48673828 4.91765625 6.48673828 4.91765625 5.26171875 5.34375 C3 6 3 6 0 6 C0 4.02 0 2.04 0 0 Z " fill="#2A7C3C" transform="translate(24,62)"/>
<path d="M0 0 C1.32 0 2.64 0 4 0 C4 1.65 4 3.3 4 5 C4.763125 4.319375 5.52625 3.63875 6.3125 2.9375 C7.199375 2.298125 8.08625 1.65875 9 1 C9.99 1.33 10.98 1.66 12 2 C11.67 3.98 11.34 5.96 11 8 C5.06 6.515 5.06 6.515 -1 5 C-0.67 3.35 -0.34 1.7 0 0 Z " fill="#DFDDBB" transform="translate(50,30)"/>
<path d="M0 0 C1.2375 0.350625 2.475 0.70125 3.75 1.0625 C4.8225 1.371875 5.895 1.68125 7 2 C7 2.33 7 2.66 7 3 C3.98400776 3.07013935 1.31959301 3.07609357 -1.625 2.375 C-3.97126774 1.75770725 -3.97126774 1.75770725 -5.7265625 2.9375 C-8.74954633 4.35030344 -11.43000661 4.4258004 -14.75 4.625 C-15.92046875 4.69976563 -17.0909375 4.77453125 -18.296875 4.8515625 C-19.18890625 4.90054687 -20.0809375 4.94953125 -21 5 C-18.34339786 2.34339786 -16.15470396 2.2096775 -12.5 1.4375 C-2.41035996 -0.7165935 -2.41035996 -0.7165935 0 0 Z " fill="#26361F" transform="translate(51,15)"/>
<path d="M0 0 C0.66 0 1.32 0 2 0 C2.0825 1.11375 2.165 2.2275 2.25 3.375 C2.56275068 7.02555987 2.56275068 7.02555987 4.875 8.25 C5.57625 8.4975 6.2775 8.745 7 9 C8.75 10.625 8.75 10.625 10 12 C9.67 12.66 9.34 13.32 9 14 C5 14 5 14 2.25 12.0625 C-0.76231598 7.96240325 -0.48218104 4.91824661 0 0 Z " fill="#C2CB34" transform="translate(48,45)"/>
<path d="M0 0 C1.09570312 0.00902344 2.19140625 0.01804688 3.3203125 0.02734375 C4.16335937 0.03894531 5.00640625 0.05054688 5.875 0.0625 C5.875 1.7125 5.875 3.3625 5.875 5.0625 C1.20833333 4.39583333 -3.45833333 3.72916667 -8.125 3.0625 C-8.125 2.4025 -8.125 1.7425 -8.125 1.0625 C-5.36047967 -0.31976016 -3.0788637 -0.03275387 0 0 Z " fill="#2E7D3B" transform="translate(67.125,61.9375)"/>
<path d="M0 0 C5.94 1.485 5.94 1.485 12 3 C12 3.66 12 4.32 12 5 C9.11788698 5.96070434 7.30149956 6.10581883 4.3125 6.0625 C3.10013672 6.04896484 3.10013672 6.04896484 1.86328125 6.03515625 C0.94095703 6.01775391 0.94095703 6.01775391 0 6 C0 4.02 0 2.04 0 0 Z " fill="#2F7E3B" transform="translate(24,55)"/>
<path d="M0 0 C0.66 0 1.32 0 2 0 C1.5625 2.8125 1.5625 2.8125 0 6 C-2.20253391 7.09911183 -4.33172614 7.73871117 -6.7109375 8.359375 C-9.02660483 8.92526322 -9.02660483 8.92526322 -11.1015625 10.078125 C-13 11 -13 11 -16 11 C-15 8 -15 8 -13.109375 6.83203125 C-5.27810031 3.44798706 -5.27810031 3.44798706 -1 4 C-0.67 2.68 -0.34 1.36 0 0 Z " fill="#E5E143" transform="translate(78,96)"/>
<path d="M0 0 C0.99 0 1.98 0 3 0 C3 0.66 3 1.32 3 2 C3.66 2 4.32 2 5 2 C8 6.38461538 8 6.38461538 8 9 C8.66 9.33 9.32 9.66 10 10 C9.67 11.65 9.34 13.3 9 15 C0.77027027 5.00675676 0.77027027 5.00675676 0 0 Z " fill="#212145" transform="translate(83,26)"/>
<path d="M0 0 C1.65 0 3.3 0 5 0 C5.12375 0.639375 5.2475 1.27875 5.375 1.9375 C5.58125 2.618125 5.7875 3.29875 6 4 C6.66 4.33 7.32 4.66 8 5 C6.54536519 5.38909985 5.08608793 5.76088029 3.625 6.125 C2.81289063 6.33382812 2.00078125 6.54265625 1.1640625 6.7578125 C0.44992188 6.83773437 -0.26421875 6.91765625 -1 7 C-1.66 6.34 -2.32 5.68 -3 5 C-2.67 4.01 -2.34 3.02 -2 2 C-1.34 2 -0.68 2 0 2 C0 1.34 0 0.68 0 0 Z " fill="#A8ACA8" transform="translate(54,87)"/>
<path d="M0 0 C-0.25 2.375 -0.25 2.375 -1 5 C-3.0625 6.3125 -3.0625 6.3125 -5 7 C-5 8.32 -5 9.64 -5 11 C-6.98 11 -8.96 11 -11 11 C-11 10.34 -11 9.68 -11 9 C-10.01 8.67 -9.02 8.34 -8 8 C-6.96210419 6.35666496 -5.96432076 4.68756133 -5 3 C-2.4137931 0 -2.4137931 0 0 0 Z " fill="#292851" transform="translate(86,93)"/>
<path d="M0 0 C-0.33 1.32 -0.66 2.64 -1 4 C-1.66 4 -2.32 4 -3 4 C-3.66 5.32 -4.32 6.64 -5 8 C-6.32 7.34 -7.64 6.68 -9 6 C-8.67 4.35 -8.34 2.7 -8 1 C-5.07175348 0.02391783 -3.04386724 -0.08226668 0 0 Z " fill="#418738" transform="translate(69,74)"/>
<path d="M0 0 C0.515625 0.515625 1.03125 1.03125 1.5625 1.5625 C4.9710271 3.57265701 7.23106857 2.79727396 11 2 C11.33 3.32 11.66 4.64 12 6 C11.01 6 10.02 6 9 6 C9.33 6.99 9.66 7.98 10 9 C9 10 9 10 6.4375 10.0625 C5.633125 10.041875 4.82875 10.02125 4 10 C4.33 9.34 4.66 8.68 5 8 C4.175 7.05125 3.35 6.1025 2.5 5.125 C0 2.25 0 2.25 0 0 Z " fill="#5A943A" transform="translate(33,44)"/>
<path d="M0 0 C0.99 0.33 1.98 0.66 3 1 C2.70488433 3.85278483 2.18767059 4.83578823 0 6.75 C-4.06273416 8.4428059 -7.65923807 8.25533894 -12 8 C-9 6 -9 6 -6 4.5625 C-3.42183698 3.21970676 -1.86118883 2.17138697 0 0 Z " fill="#28284D" transform="translate(47,6)"/>
<path d="M0 0 C0.66 0 1.32 0 2 0 C3.5078125 1.75 3.5078125 1.75 5.125 4 C5.66382813 4.7425 6.20265625 5.485 6.7578125 6.25 C7.16773438 6.8275 7.57765625 7.405 8 8 C5 9 5 9 2.95703125 8.00390625 C2.24933594 7.52824219 1.54164062 7.05257812 0.8125 6.5625 C0.09707031 6.08941406 -0.61835938 5.61632813 -1.35546875 5.12890625 C-1.89816406 4.75636719 -2.44085937 4.38382813 -3 4 C-1.625 2 -1.625 2 0 0 Z " fill="#24783C" transform="translate(31,44)"/>
<path d="M0 0 C2.30039124 3.45058686 2.4738275 5.94095502 3 10 C3.33 10.33 3.66 10.66 4 11 C4.33 10.01 4.66 9.02 5 8 C6.20628008 10.33214148 7.1654738 12.49642139 8 15 C6.35 14.67 4.7 14.34 3 14 C3 13.34 3 12.68 3 12 C2.01 12.33 1.02 12.66 0 13 C-0.66 11.02 -1.32 9.04 -2 7 C-1.01 7.33 -0.02 7.66 1 8 C0.67 5.36 0.34 2.72 0 0 Z " fill="#A5B836" transform="translate(43,41)"/>
<path d="M0 0 C2.62791446 0.36247096 3.77739043 0.76454757 5.625 2.71875 C7.28250445 5.46870056 7.31303482 7.06978456 7.1875 10.25 C7.16042969 11.14203125 7.13335938 12.0340625 7.10546875 12.953125 C7.07066406 13.62859375 7.03585938 14.3040625 7 15 C5 12 5 12 5 8 C4.34 8 3.68 8 3 8 C0.95830515 5.09451118 0 3.59857954 0 0 Z " fill="#2D2C5A" transform="translate(0,70)"/>
<path d="M0 0 C0.66 0.66 1.32 1.32 2 2 C1.77355827 6.981718 -0.01183479 10.07803317 -3 14 C-3.33 14 -3.66 14 -4 14 C-4.49940808 7.88225104 -3.24900602 4.97504047 0 0 Z " fill="#292752" transform="translate(96,67)"/>
<path d="M0 0 C2 0.9375 2 0.9375 3.25 4 C3.4975 4.969375 3.745 5.93875 4 6.9375 C1.69 6.9375 -0.62 6.9375 -3 6.9375 C-3.33 4.9575 -3.66 2.9775 -4 0.9375 C-2 -0.0625 -2 -0.0625 0 0 Z " fill="#F9FAF3" transform="translate(22,68.0625)"/>
<path d="M0 0 C0.33 0 0.66 0 1 0 C1 3.63 1 7.26 1 11 C-2 12 -2 12 -5 11 C-5 10.01 -5 9.02 -5 8 C-3.35 8 -1.7 8 0 8 C0 6.68 0 5.36 0 4 C-1.65 4.33 -3.3 4.66 -5 5 C-4.67 3.68 -4.34 2.36 -4 1 C-2.02 1.495 -2.02 1.495 0 2 C0 1.34 0 0.68 0 0 Z " fill="#878D89" transform="translate(81,55)"/>
<path d="M0 0 C1.32 0.33 2.64 0.66 4 1 C3.46968862 5.5076467 1.74778884 8.41954788 -1 12 C-1.66 12 -2.32 12 -3 12 C-2.01 8.04 -1.02 4.08 0 0 Z " fill="#27793B" transform="translate(56,38)"/>
<path d="M0 0 C0.99 0.66 1.98 1.32 3 2 C1.55527654 5.80881639 -0.32603071 7.29742886 -4 9 C-4.99 8.67 -5.98 8.34 -7 8 C-6.21366078 6.85050412 -5.42073742 5.70551011 -4.625 4.5625 C-4.18414062 3.92441406 -3.74328125 3.28632812 -3.2890625 2.62890625 C-2 1 -2 1 0 0 Z " fill="#24793C" transform="translate(66,44)"/>
<path d="M0 0 C-0.33 1.32 -0.66 2.64 -1 4 C-1 3.01 -1 2.02 -1 1 C-2.65 1.33 -4.3 1.66 -6 2 C-5.2265625 3.175625 -5.2265625 3.175625 -4.4375 4.375 C-3.963125 5.24125 -3.48875 6.1075 -3 7 C-3.33 7.66 -3.66 8.32 -4 9 C-4.45375 8.34 -4.9075 7.68 -5.375 7 C-5.91125 6.34 -6.4475 5.68 -7 5 C-9.24362573 4.7715451 -9.24362573 4.7715451 -11.125 7 C-11.74375 7.66 -12.3625 8.32 -13 9 C-13.33 8.01 -13.66 7.02 -14 6 C-12.68 5.34 -11.36 4.68 -10 4 C-10 3.34 -10 2.68 -10 2 C-6.49223216 0.39644899 -3.85645121 -0.22036864 0 0 Z " fill="#C1CF31" transform="translate(43,37)"/>
<path d="M0 0 C2.85149263 0.08386743 4.53673459 0.54919405 6.59765625 2.5546875 C8.10578659 4.34072883 9.5538787 6.16372281 11 8 C11.66 8.66 12.32 9.32 13 10 C10.8125 10.375 10.8125 10.375 8 10 C5.375 7.125 5.375 7.125 3 4 C2.01 3.34 1.02 2.68 0 2 C0 1.34 0 0.68 0 0 Z " fill="#E0DC38" transform="translate(65,17)"/>
<path d="M0 0 C-1.49835228 4.66154042 -4.88463591 5.86610751 -9 8 C-9.33 6.35 -9.66 4.7 -10 3 C-8.70990357 2.49596232 -7.41786211 1.99690074 -6.125 1.5 C-5.04605469 1.08234375 -5.04605469 1.08234375 -3.9453125 0.65625 C-2 0 -2 0 0 0 Z " fill="#26783C" transform="translate(36,66)"/>
<path d="M0 0 C2.475 0.495 2.475 0.495 5 1 C4.67 1.66 4.34 2.32 4 3 C3.9310528 4.37342831 3.91532292 5.75002102 3.9375 7.125 C3.958125 8.40375 3.97875 9.6825 4 11 C2.68 11 1.36 11 0 11 C0 7.37 0 3.74 0 0 Z " fill="#F1EC28" transform="translate(50,66)"/>
<path d="M0 0 C1.32 0.33 2.64 0.66 4 1 C3.01 1.33 2.02 1.66 1 2 C1.99 2.33 2.98 2.66 4 3 C4 3.66 4 4.32 4 5 C0.8364623 7.169283 -2.4124787 8.66749209 -6 10 C-6 9.01 -6 8.02 -6 7 C-5.071875 6.6596875 -5.071875 6.6596875 -4.125 6.3125 C-1.38589791 4.62070165 -0.94975528 3.00755839 0 0 Z " fill="#D7DD25" transform="translate(44,58)"/>
<path d="M0 0 C0.66 0 1.32 0 2 0 C1.42365861 4.75481646 -0.55068521 7.97048212 -3 12 C-4.32 11.34 -5.64 10.68 -7 10 C-5.88321917 8.3278148 -4.75633648 6.66237197 -3.625 5 C-2.99851562 4.071875 -2.37203125 3.14375 -1.7265625 2.1875 C-1.15679687 1.465625 -0.58703125 0.74375 0 0 Z " fill="#292950" transform="translate(7,32)"/>
<path d="M0 0 C0.66 0.33 1.32 0.66 2 1 C0.50172989 4.81377846 -1.76487393 6.57365545 -5 9 C-5.66 9.66 -6.32 10.32 -7 11 C-7 10.34 -7 9.68 -7 9 C-7.66 8.67 -8.32 8.34 -9 8 C-6.14723863 5.06799526 -3.34920216 2.35684596 0 0 Z " fill="#3E3E6A" transform="translate(16,23)"/>
<path d="M0 0 C2.43507398 2.86479292 3.38110704 4.75175025 3.625 8.5 C3.83728785 11.45181203 4.20818933 14.14428938 5 17 C4.34 17.33 3.68 17.66 3 18 C-0.81636773 12.27544841 -0.29282789 6.70250505 0 0 Z " fill="#B7B440" transform="translate(1,55)"/>
<path d="M0 0 C1.32 0.33 2.64 0.66 4 1 C2.4169423 5.2742558 -0.50568404 7.26531794 -4 10 C-3.43454163 6.04179141 -2.19097652 3.3340947 0 0 Z " fill="#26793C" transform="translate(61,41)"/>
<path d="M0 0 C8.86956522 0.73913043 8.86956522 0.73913043 12 4 C12 4.66 12 5.32 12 6 C9 7 9 7 6 5.8125 C3.13827041 4.08353838 1.73820752 2.80044545 0 0 Z " fill="#3E3E5A" transform="translate(61,12)"/>
<path d="M0 0 C2.97 0.495 2.97 0.495 6 1 C5.67 2.65 5.34 4.3 5 6 C3.02 6 1.04 6 -1 6 C-0.67 4.02 -0.34 2.04 0 0 Z " fill="#FBFCFA" transform="translate(41,87)"/>
<path d="M0 0 C0.99 0.66 1.98 1.32 3 2 C3.1875 5.625 3.1875 5.625 3 9 C1.68 9 0.36 9 -1 9 C-1 7 -1 7 0 6 C-0.33 5.34 -0.66 4.68 -1 4 C-1.99 3.67 -2.98 3.34 -4 3 C-3 1 -3 1 0 0 Z " fill="#6D9B35" transform="translate(42,67)"/>
<path d="M0 0 C0.33 0.66 0.66 1.32 1 2 C1.66 2.144375 2.32 2.28875 3 2.4375 C3.66 2.623125 4.32 2.80875 5 3 C5.33 3.99 5.66 4.98 6 6 C5.34 6 4.68 6 4 6 C4.33 6.99 4.66 7.98 5 9 C3.68 9 2.36 9 1 9 C0.67 6.03 0.34 3.06 0 0 Z " fill="#E6E520" transform="translate(37,68)"/>
<path d="M0 0 C1.12894876 0.93274109 2.25300876 1.87140122 3.375 2.8125 C4.00148438 3.33457031 4.62796875 3.85664062 5.2734375 4.39453125 C7 6 7 6 9 9 C11.05003955 10.19232613 11.05003955 10.19232613 13 11 C13 11.33 13 11.66 13 12 C10.734375 12.26953125 10.734375 12.26953125 8 12 C6.015625 10.13671875 6.015625 10.13671875 4.25 7.6875 C3.65703125 6.88699219 3.0640625 6.08648437 2.453125 5.26171875 C1 3 1 3 0 0 Z " fill="#0E1C28" transform="translate(14,88)"/>
<path d="M0 0 C2.16874252 0.50603992 3.99967627 0.99983813 6 2 C6 2.66 6 3.32 6 4 C5.01 4.33 4.02 4.66 3 5 C3 6.65 3 8.3 3 10 C1.10786631 7.61426621 -0.02391783 5.92824652 -1 3 C-0.67 2.01 -0.34 1.02 0 0 Z " fill="#8CAA37" transform="translate(54,66)"/>
<path d="M0 0 C0.99 0 1.98 0 3 0 C3.33 3.63 3.66 7.26 4 11 C2.35 11 0.7 11 -1 11 C-0.34 10.67 0.32 10.34 1 10 C0.835 8.906875 0.67 7.81375 0.5 6.6875 C0 3 0 3 0 0 Z " fill="#F6EF27" transform="translate(44,66)"/>
<path d="M0 0 C0.99 0.33 1.98 0.66 3 1 C0.64264116 3.72957339 -1.58133526 4.88893396 -5 6 C-5.99 6 -6.98 6 -8 6 C-8 5.34 -8 4.68 -8 4 C-8.66 3.67 -9.32 3.34 -10 3 C-9.04287109 2.80083984 -9.04287109 2.80083984 -8.06640625 2.59765625 C-7.24011719 2.42105469 -6.41382813 2.24445312 -5.5625 2.0625 C-4.73878906 1.88847656 -3.91507813 1.71445313 -3.06640625 1.53515625 C-1.02338796 1.19247006 -1.02338796 1.19247006 0 0 Z " fill="#D6D33B" transform="translate(47,11)"/>
<path d="M0 0 C0.33 0 0.66 0 1 0 C1.25011345 2.22691371 1.47428352 4.45675122 1.6875 6.6875 C1.81511719 7.92886719 1.94273438 9.17023438 2.07421875 10.44921875 C1.99375562 14.29874446 1.26578663 15.95371103 -1 19 C-1.66 18.34 -2.32 17.68 -3 17 C-2.68289062 16.47921875 -2.36578125 15.9584375 -2.0390625 15.421875 C-0.71079489 12.32591291 -0.57635753 9.60595879 -0.375 6.25 C-0.30023438 5.07953125 -0.22546875 3.9090625 -0.1484375 2.703125 C-0.09945312 1.81109375 -0.05046875 0.9190625 0 0 Z " fill="#BEBA3F" transform="translate(93,56)"/>
<path d="M0 0 C2.0625 1.5625 2.0625 1.5625 4 4 C3.75 7.75 3.75 7.75 3 11 C2.34 10.34 1.68 9.68 1 9 C0.01 9.495 0.01 9.495 -1 10 C-0.67 6.7 -0.34 3.4 0 0 Z " fill="#474459" transform="translate(91,75)"/>
<path d="M0 0 C0.66 0.66 1.32 1.32 2 2 C1.67 2.66 1.34 3.32 1 4 C2.65 4 4.3 4 6 4 C6 4.99 6 5.98 6 7 C4.34385343 7.38218767 2.67542976 7.71395102 1 8 C0 7 0 7 -0.0625 3.4375 C-0.041875 2.303125 -0.02125 1.16875 0 0 Z " fill="#EDEFEE" transform="translate(16,58)"/>
<path d="M0 0 C1.32 0 2.64 0 4 0 C4 1.98 4 3.96 4 6 C3.01 6.33 2.02 6.66 1 7 C0.34 5.02 -0.32 3.04 -1 1 C-0.67 0.67 -0.34 0.34 0 0 Z " fill="#ECF0EC" transform="translate(39,29)"/>
<path d="M0 0 C1.98 0.99 1.98 0.99 4 2 C4 5.3 4 8.6 4 12 C3.34 11.67 2.68 11.34 2 11 C1.71080072 9.00773831 1.42735449 7.01277818 1.24609375 5.0078125 C1.0424937 2.79670732 1.0424937 2.79670732 0 0 Z " fill="#F0EC41" transform="translate(5,72)"/>
<path d="M0 0 C0.33 0 0.66 0 1 0 C1.125 5.75 1.125 5.75 0 8 C-1.32 7.34 -2.64 6.68 -4 6 C-2.84826645 3.53199953 -1.95216435 1.95216435 0 0 Z " fill="#24783C" transform="translate(36,74)"/>
<path d="M0 0 C0 3.51716303 -0.82445585 4.37121748 -3 7 C-2.67 7.66 -2.34 8.32 -2 9 C-2.99 9.33 -3.98 9.66 -5 10 C-5.66 9.67 -6.32 9.34 -7 9 C-6.82374165 6.62051228 -6.30280227 5.29774151 -4.59765625 3.62109375 C-3.09350908 2.37884514 -1.54870149 1.18623944 0 0 Z " fill="#73A333" transform="translate(63,45)"/>
<path d="M0 0 C0.66 0 1.32 0 2 0 C1.67 3.96 1.34 7.92 1 12 C0.34 11.67 -0.32 11.34 -1 11 C-1.02688151 9.35425434 -1.04634123 7.70838587 -1.0625 6.0625 C-1.07410156 5.14597656 -1.08570312 4.22945312 -1.09765625 3.28515625 C-1 1 -1 1 0 0 Z " fill="#24234D" transform="translate(96,46)"/>
<path d="M0 0 C0.99 0.66 1.98 1.32 3 2 C3 2.66 3 3.32 3 4 C2.195625 4.12375 1.39125 4.2475 0.5625 4.375 C-0.7059375 4.684375 -0.7059375 4.684375 -2 5 C-2.33 5.66 -2.66 6.32 -3 7 C-3.66 5.68 -4.32 4.36 -5 3 C-3.35 2.01 -1.7 1.02 0 0 Z " fill="#F5F6F0" transform="translate(74,41)"/>
<path d="M0 0 C2.31 0 4.62 0 7 0 C6.67 1.65 6.34 3.3 6 5 C5.01 5.33 4.02 5.66 3 6 C3 4.35 3 2.7 3 1 C2.01 0.67 1.02 0.34 0 0 Z " fill="#F2F4F2" transform="translate(51,29)"/>
<path d="M0 0 C4.92127034 -0.16682272 8.50343896 -0.24828052 13 2 C13 2.33 13 2.66 13 3 C8.71 2.67 4.42 2.34 0 2 C0 1.34 0 0.68 0 0 Z " fill="#212155" transform="translate(53,12)"/>
<path d="M0 0 C1.32 0 2.64 0 4 0 C4 2.31 4 4.62 4 7 C2.68 6.67 1.36 6.34 0 6 C0 4.02 0 2.04 0 0 Z " fill="#F5F020" transform="translate(56,70)"/>
<path d="M0 0 C2.31 0 4.62 0 7 0 C7 1.32 7 2.64 7 4 C4.03 3.505 4.03 3.505 1 3 C0.67 2.01 0.34 1.02 0 0 Z " fill="#FAFBF9" transform="translate(74,53)"/>
<path d="M0 0 C5.02254631 -0.2954439 7.89542386 0.01485372 12 3 C8.69564916 4.12377697 6.9493138 3.89554742 3.75 2.5625 C3.04359375 2.27503906 2.3371875 1.98757812 1.609375 1.69140625 C1.07828125 1.46324219 0.5471875 1.23507813 0 1 C0 0.67 0 0.34 0 0 Z " fill="#E8E635" transform="translate(21,101)"/>
<path d="M0 0 C1.94268841 2.91403262 3.46395304 5.85808576 5 9 C2 9 2 9 0.25 7.3125 C-1 5 -1 5 -0.6875 2.25 C-0.460625 1.5075 -0.23375 0.765 0 0 Z " fill="#D8D440" transform="translate(9,81)"/>
<path d="M0 0 C1.65 0 3.3 0 5 0 C5.33 1.32 5.66 2.64 6 4 C5.01 4.66 4.02 5.32 3 6 C2.01 4.02 1.02 2.04 0 0 Z " fill="#ABB1AC" transform="translate(19,75)"/>
<path d="M0 0 C1.32 0.66 2.64 1.32 4 2 C3.67 3.65 3.34 5.3 3 7 C1.68 6.34 0.36 5.68 -1 5 C-0.67 3.35 -0.34 1.7 0 0 Z " fill="#2A7B3C" transform="translate(61,75)"/>
<path d="M0 0 C3.26954202 0.56371414 4.82575883 1.49962266 7 4 C5.02 4.99 5.02 4.99 3 6 C1.5 4.6875 1.5 4.6875 0 3 C0 2.01 0 1.02 0 0 Z " fill="#F8F9F3" transform="translate(26,37)"/>
<path d="M0 0 C0.99 0 1.98 0 3 0 C3.33 1.98 3.66 3.96 4 6 C2.68 6 1.36 6 0 6 C0 4.02 0 2.04 0 0 Z " fill="#2F7E3A" transform="translate(51,80)"/>
<path d="M0 0 C0.33 1.32 0.66 2.64 1 4 C-0.65 4.66 -2.3 5.32 -4 6 C-4 4.33333333 -4 2.66666667 -4 1 C-2 0 -2 0 0 0 Z " fill="#2B7B3B" transform="translate(71,49)"/>
<path d="M0 0 C1.98 0 3.96 0 6 0 C6 0.99 6 1.98 6 3 C5.360625 3.12375 4.72125 3.2475 4.0625 3.375 C3.381875 3.58125 2.70125 3.7875 2 4 C1.67 4.66 1.34 5.32 1 6 C0.67 4.02 0.34 2.04 0 0 Z " fill="#8A938C" transform="translate(16,65)"/>
<path d="M0 0 C1.65 0 3.3 0 5 0 C5 1.32 5 2.64 5 4 C3.35 4 1.7 4 0 4 C0 2.68 0 1.36 0 0 Z " fill="#66666A" transform="translate(17,58)"/>
<path d="M0 0 C2.64 0 5.28 0 8 0 C5.75 2.0625 5.75 2.0625 3 4 C0.6875 3.75 0.6875 3.75 -1 3 C-0.67 2.01 -0.34 1.02 0 0 Z " fill="#514A4A" transform="translate(65,106)"/>
<path d="M0 0 C-4.625 3 -4.625 3 -8 3 C-7.67 2.01 -7.34 1.02 -7 0 C-3.86650268 -1.04449911 -3.01031744 -0.93423645 0 0 Z " fill="#EBE74A" transform="translate(70,104)"/>
<path d="M0 0 C0.33 1.32 0.66 2.64 1 4 C-0.32 4.99 -1.64 5.98 -3 7 C-3 3 -3 3 -1.5 1.25 C-1.005 0.8375 -0.51 0.425 0 0 Z " fill="#CECD4B" transform="translate(83,90)"/>
<path d="M0 0 C0.33 0.66 0.66 1.32 1 2 C1.66 2.33 2.32 2.66 3 3 C1.68 4.32 0.36 5.64 -1 7 C-1 6.01 -1 5.02 -1 4 C-1.66 3.67 -2.32 3.34 -3 3 C-2.01 2.01 -1.02 1.02 0 0 Z " fill="#47424B" transform="translate(87,89)"/>
<path d="M0 0 C2.475 0.99 2.475 0.99 5 2 C4.01 2.33 3.02 2.66 2 3 C0.79117904 5.00016466 0.79117904 5.00016466 0 7 C-1.125 2.25 -1.125 2.25 0 0 Z " fill="#F6F7F2" transform="translate(31,82)"/>
<path d="M0 0 C1.9375 0.3125 1.9375 0.3125 4 1 C4.33 1.99 4.66 2.98 5 4 C4.01 5.485 4.01 5.485 3 7 C0 3.375 0 3.375 0 0 Z " fill="#333253" transform="translate(0,70)"/>
<path d="M0 0 C0 2.31 0 4.62 0 7 C-0.99 6.67 -1.98 6.34 -3 6 C-3 4.35 -3 2.7 -3 1 C-1 0 -1 0 0 0 Z " fill="#C1C82F" transform="translate(50,70)"/>
<path d="M0 0 C0.75 1.75 0.75 1.75 1 4 C-0.8125 6.25 -0.8125 6.25 -3 8 C-3.66 8 -4.32 8 -5 8 C-5 7.01 -5 6.02 -5 5 C-4.360625 4.731875 -3.72125 4.46375 -3.0625 4.1875 C-0.66868314 3.11332248 -0.66868314 3.11332248 0 0 Z " fill="#BECF2E" transform="translate(43,60)"/>
<path d="M0 0 C0 0.99 0 1.98 0 3 C-0.66 3 -1.32 3 -2 3 C-2.33 3.66 -2.66 4.32 -3 5 C-3.33 4.01 -3.66 3.02 -4 2 C-4.99 2.33 -5.98 2.66 -7 3 C-7 2.34 -7 1.68 -7 1 C-4.53721199 -0.231394 -2.7204945 -0.07159196 0 0 Z " fill="#6B9C38" transform="translate(52,59)"/>
<path d="M0 0 C0.66 0.33 1.32 0.66 2 1 C1.67 2.32 1.34 3.64 1 5 C-0.32 5 -1.64 5 -3 5 C-3 4.01 -3 3.02 -3 2 C-2.01 1.34 -1.02 0.68 0 0 Z " fill="#868682" transform="translate(71,39)"/>
<path d="M0 0 C0.66 0 1.32 0 2 0 C2 1.65 2 3.3 2 5 C1.01 5.495 1.01 5.495 0 6 C-0.99 5.34 -1.98 4.68 -3 4 C-1.625 2 -1.625 2 0 0 Z " fill="#8B908C" transform="translate(39,87)"/>
<path d="M0 0 C1.98 0.495 1.98 0.495 4 1 C3.34 2.65 2.68 4.3 2 6 C1.67 5.01 1.34 4.02 1 3 C0.34 3 -0.32 3 -1 3 C-0.67 2.01 -0.34 1.02 0 0 Z " fill="#979E98" transform="translate(74,75)"/>
<path d="M0 0 C1.98 0.66 3.96 1.32 6 2 C6 2.66 6 3.32 6 4 C4.02 4 2.04 4 0 4 C0 2.68 0 1.36 0 0 Z " fill="#F4F5F2" transform="translate(17,53)"/>
<path d="M0 0 C1.98 0.495 1.98 0.495 4 1 C3.67 2.32 3.34 3.64 3 5 C1.68 5 0.36 5 -1 5 C-0.67 3.35 -0.34 1.7 0 0 Z " fill="#656566" transform="translate(58,31)"/>
<path d="M0 0 C1.32 0 2.64 0 4 0 C4 1.32 4 2.64 4 4 C2.35 4 0.7 4 -1 4 C-0.67 2.68 -0.34 1.36 0 0 Z " fill="#5E5E5F" transform="translate(50,30)"/>
<path d="M0 0 C3.82097239 0.53069061 6.06171403 1.49701566 9 4 C6.1875 4.25 6.1875 4.25 3 4 C1.125 2 1.125 2 0 0 Z " fill="#EFEA29" transform="translate(48,12)"/>
</svg>
